<?xml version="1.0" standalone="no"?>
<!DOCTYPE svg PUBLIC "-//W3C//DTD SVG 20010904//EN"
 "http://www.w3.org/TR/2001/REC-SVG-20010904/DTD/svg10.dtd">
<svg version="1.0" xmlns="http://www.w3.org/2000/svg"
 width="300.000000pt" height="300.000000pt" viewBox="0 0 300.000000 300.000000"
 preserveAspectRatio="xMidYMid meet">
<metadata>
Created by potrace 1.10, written by Peter Selinger 2001-2011
</metadata>
<g transform="translate(0.000000,300.000000) scale(0.100000,-0.100000)"
fill="#000000" stroke="none">
<path d="M134 2988 c-4 -6 -2 -14 4 -16 19 -6 14 -25 -13 -51 -30 -28 -32 -51
-6 -51 11 0 21 -6 24 -12 4 -10 7 -10 17 -1 11 10 9 16 -10 31 l-23 19 21 21
c25 25 41 27 67 8 18 -13 17 -14 -9 -40 -22 -23 -24 -27 -6 -21 18 6 20 2 20
-34 0 -34 -3 -41 -20 -41 -11 0 -25 9 -32 20 -15 23 -28 26 -28 6 0 -22 29
-46 47 -39 9 4 21 -1 29 -12 13 -17 14 -16 20 13 9 45 29 59 53 38 13 -12 21
-14 26 -6 4 6 13 9 21 6 8 -3 14 1 14 9 0 17 -33 29 -58 21 -10 -4 -26 0 -35
6 -23 17 -12 78 15 85 20 6 25 23 6 23 -6 0 -20 8 -31 17 -18 17 -19 17 -28 0
-12 -21 -59 -23 -59 -2 0 18 -16 20 -26 3z"/>
<path d="M348 2993 c17 -2 32 -8 32 -13 0 -5 10 -10 22 -12 13 -2 29 -15 36
-31 10 -21 17 -26 25 -18 15 15 -9 65 -28 58 -7 -3 -19 1 -25 9 -8 8 -28 13
-54 12 -37 -1 -38 -2 -8 -5z"/>
<path d="M507 2981 c3 -10 0 -28 -5 -38 -6 -11 -7 -24 -3 -31 4 -7 14 8 23 38
15 48 15 50 -2 50 -13 0 -17 -5 -13 -19z"/>
<path d="M676 2991 c-7 -11 18 -33 27 -24 4 3 7 12 7 20 0 15 -26 18 -34 4z"/>
<path d="M1260 2960 c8 -43 16 -57 27 -47 7 8 -17 87 -27 87 -4 0 -4 -18 0
-40z"/>
<path d="M1576 2990 c27 -11 36 -46 28 -113 -4 -34 -2 -62 5 -75 9 -18 8 -30
-9 -64 -23 -48 -23 -48 -11 -48 5 0 11 9 14 21 4 13 10 18 17 14 8 -5 10 -23
6 -55 -4 -26 -1 -71 5 -100 6 -28 12 -79 13 -113 0 -34 6 -64 11 -67 14 -7 19
146 6 179 -6 14 -13 80 -16 146 -6 128 -12 200 -20 253 -5 28 -9 32 -38 31
-28 0 -29 -1 -11 -9z"/>
<path d="M2180 2992 c0 -5 7 -17 15 -28 8 -10 15 -30 15 -44 0 -14 7 -36 15
-50 17 -29 19 -44 5 -35 -5 3 -7 0 -4 -9 3 -8 12 -17 20 -20 19 -7 18 30 -2
91 -14 41 -14 48 -1 58 12 9 13 14 2 28 -12 17 -65 24 -65 9z"/>
<path d="M2357 2993 c-12 -11 -8 -33 6 -30 7 1 12 -11 13 -34 1 -19 7 -44 13
-55 10 -16 11 -11 7 30 -3 27 -6 59 -6 72 0 23 -19 32 -33 17z"/>
<path d="M2435 2938 c5 -35 8 -70 8 -78 -1 -8 14 -60 33 -115 18 -55 33 -113
33 -130 -1 -47 7 -87 21 -95 7 -4 9 -13 5 -20 -5 -8 -4 -11 2 -7 6 4 17 0 24
-9 10 -12 10 -20 1 -35 -10 -16 -10 -21 3 -25 20 -8 51 -68 60 -116 4 -20 18
-46 31 -59 13 -12 24 -31 24 -41 0 -10 5 -18 10 -18 16 0 12 24 -13 71 -13 24
-27 61 -31 82 -4 21 -20 57 -36 81 -17 24 -30 51 -30 59 0 8 -7 20 -16 28 -14
12 -13 14 8 23 l23 9 -25 5 c-37 6 -39 11 -40 87 -1 43 -8 83 -18 104 -13 26
-14 35 -4 38 16 6 16 23 -1 23 -21 0 -38 39 -36 83 1 23 -1 51 -4 62 -7 23 1
39 23 48 8 3 -2 6 -23 6 l-39 1 7 -62z"/>
<path d="M2526 2978 c9 -33 12 -34 29 -12 21 27 18 34 -11 34 -22 0 -24 -3
-18 -22z"/>
<path d="M2738 2968 c2 -18 12 -42 22 -53 10 -11 26 -39 36 -63 12 -31 20 -40
27 -33 6 6 19 11 29 11 12 0 18 8 18 23 0 29 -10 40 -25 27 -8 -7 -20 -1 -39
19 l-28 29 23 12 c21 12 22 13 5 26 -10 7 -24 10 -32 7 -8 -3 -17 2 -20 11
-11 28 -21 17 -16 -16z"/>
<path d="M2905 2991 c-6 -5 -21 -11 -34 -13 l-24 -3 27 -32 c15 -18 32 -49 37
-68 6 -19 16 -35 24 -35 19 0 18 10 0 34 -39 52 10 137 53 94 9 -9 12 -7 12
10 0 19 -5 22 -43 22 -24 0 -47 -4 -52 -9z"/>
<path d="M807 2935 c-26 -41 -48 -115 -33 -115 5 0 76 144 76 156 0 15 -19 -3
-43 -41z"/>
<path d="M2616 2947 c-6 -25 1 -34 29 -39 29 -5 28 42 -2 53 -17 6 -22 3 -27
-14z"/>
<path d="M315 2952 c-10 -7 -35 -48 -35 -57 0 -3 9 -1 20 5 11 6 20 17 20 25
0 21 37 19 49 -2 9 -16 10 -16 11 5 0 12 -6 22 -14 22 -8 0 -20 2 -28 5 -7 3
-17 1 -23 -3z"/>
<path d="M2070 2917 c4 -18 5 -49 2 -68 -5 -40 5 -35 18 10 5 18 5 33 -1 36
-5 4 -9 17 -9 31 0 13 -4 24 -9 24 -5 0 -6 -15 -1 -33z"/>
<path d="M2547 2913 c-5 -9 11 -58 17 -52 2 2 6 16 10 32 5 20 3 27 -8 27 -8
0 -17 -3 -19 -7z"/>
<path d="M430 2870 c0 -18 3 -19 20 -10 22 12 18 30 -6 30 -8 0 -14 -9 -14
-20z"/>
<path d="M2597 2873 c-4 -3 0 -14 8 -23 13 -14 12 -19 -8 -40 -25 -27 -43 -65
-27 -55 5 3 23 -1 41 -10 41 -22 51 -9 15 20 -34 27 -29 43 12 37 21 -3 32
-12 40 -36 7 -18 12 -41 12 -52 0 -11 21 -36 48 -58 l47 -38 3 27 c4 35 -14
56 -47 53 -23 -3 -26 0 -25 30 1 21 -3 32 -12 32 -16 0 -19 16 -4 25 18 11 10
25 -15 25 -18 0 -25 5 -25 19 0 11 -10 27 -22 35 -25 18 -32 19 -41 9z"/>
<path d="M1216 2838 c-4 -18 -9 -47 -13 -65 -3 -18 -12 -34 -22 -36 -14 -3
-14 -5 2 -12 27 -11 35 3 42 78 6 71 2 89 -9 35z"/>
<path d="M488 2830 c-5 -30 3 -46 16 -33 9 10 7 63 -3 63 -5 0 -11 -14 -13
-30z"/>
<path d="M2160 2823 c0 -20 22 -73 30 -73 5 0 4 15 -2 33 -12 34 -28 58 -28
40z"/>
<path d="M1066 2813 c-3 -3 -1 -12 6 -20 8 -10 8 -20 0 -36 -18 -37 -19 -71
-2 -87 13 -13 15 -7 17 62 2 71 -5 97 -21 81z"/>
<path d="M2755 2794 c-14 -15 -14 -18 0 -33 8 -10 15 -23 15 -29 0 -7 4 -12 9
-12 14 0 19 23 9 43 -5 9 -6 22 -3 27 10 17 -13 20 -30 4z"/>
<path d="M2907 2773 c-4 -3 -7 -14 -7 -24 0 -9 -21 -35 -46 -58 -27 -24 -43
-45 -39 -52 4 -6 1 -15 -6 -20 -11 -6 -11 -11 -2 -20 16 -16 5 -39 -18 -39
-11 0 -19 -7 -19 -16 0 -11 6 -14 23 -9 33 10 46 33 40 71 -6 36 6 45 27 19 7
-8 16 -15 21 -15 5 0 9 7 9 15 0 8 -6 15 -14 15 -16 0 -25 19 -18 38 6 17 31
15 38 -3 10 -25 34 -17 34 10 0 28 24 34 34 9 13 -34 17 -4 5 33 -7 21 -13 39
-14 39 -1 6 -43 13 -48 7z"/>
<path d="M89 2750 c-1 -8 0 -19 1 -25 1 -5 3 -21 5 -35 5 -55 4 -53 20 -40 11
9 13 16 5 24 -14 14 -13 36 3 66 12 23 12 25 -10 25 -13 0 -24 -6 -24 -15z"/>
<path d="M967 2743 c-11 -20 -16 -62 -8 -67 5 -3 11 11 14 31 6 36 4 52 -6 36z"/>
<path d="M187 2707 c-19 -23 -23 -52 -6 -42 10 7 32 55 27 61 -2 1 -11 -7 -21
-19z"/>
<path d="M2565 2703 c4 -16 11 -46 15 -68 5 -22 13 -41 19 -43 6 -2 11 -12 11
-23 0 -10 4 -19 9 -19 19 0 20 33 2 68 -10 20 -20 42 -21 47 -1 6 -8 18 -17
27 -8 9 -12 22 -8 27 3 6 1 11 -5 11 -8 0 -10 -9 -5 -27z"/>
<path d="M49 2713 c-6 -40 -5 -73 2 -73 4 0 7 18 7 40 0 35 -6 54 -9 33z"/>
<path d="M1410 2695 c0 -8 8 -15 19 -15 10 0 21 -9 24 -20 6 -23 37 -28 37 -6
0 17 -46 56 -66 56 -8 0 -14 -7 -14 -15z"/>
<path d="M415 2679 c-5 -15 -10 -18 -18 -10 -6 6 -15 11 -21 11 -6 0 -5 -5 2
-12 7 -7 12 -21 12 -32 0 -15 3 -17 11 -9 6 6 17 9 23 7 8 -3 13 9 14 31 3 38
-13 48 -23 14z"/>
<path d="M275 2654 c-11 -8 -25 -12 -32 -10 -7 3 -15 0 -19 -6 -5 -8 6 -9 36
-4 31 5 46 3 52 -6 6 -10 10 -10 18 2 7 11 5 19 -7 28 -21 15 -23 15 -48 -4z"/>
<path d="M1558 2628 c-5 -109 -5 -149 4 -198 9 -44 12 -51 18 -34 5 12 5 50 1
85 -5 35 -7 90 -6 122 1 31 -2 57 -6 57 -5 0 -10 -15 -11 -32z"/>
<path d="M1342 2638 c-7 -7 -12 -42 -12 -82 -1 -43 -6 -81 -15 -96 -24 -43
-16 -261 9 -222 7 12 11 57 6 77 -8 32 1 65 18 66 14 0 13 3 -5 16 -26 17 -30
33 -9 33 18 0 28 55 27 144 -1 76 -2 81 -19 64z"/>
<path d="M2200 2639 c0 -8 7 -41 15 -73 8 -31 12 -68 9 -82 -7 -26 12 -58 28
-48 5 3 6 13 3 23 -4 9 -8 27 -10 41 -3 31 -33 141 -40 148 -3 3 -5 -1 -5 -9z"/>
<path d="M2433 2629 c3 -8 13 -39 22 -69 9 -30 25 -77 34 -105 10 -27 19 -72
20 -100 1 -27 7 -66 13 -85 6 -19 11 -49 10 -67 -1 -33 20 -47 32 -20 6 13 8
11 59 -69 16 -24 33 -44 38 -44 15 0 10 15 -11 40 -11 12 -22 32 -26 44 -3 11
-15 31 -27 43 -23 26 -77 182 -77 223 0 16 -4 30 -9 32 -6 2 -15 26 -22 53
-14 61 -39 124 -52 132 -5 3 -7 0 -4 -8z"/>
<path d="M390 2592 c0 -27 -17 -37 -35 -22 -12 10 -15 9 -15 -8 0 -12 -4 -24
-10 -27 -12 -7 -14 -45 -2 -45 4 0 13 14 19 31 10 27 16 30 37 25 24 -6 25 -5
19 26 -7 40 -13 49 -13 20z"/>
<path d="M177 2583 c-4 -3 -7 -11 -7 -17 0 -6 4 -5 9 3 13 21 41 5 41 -22 0
-27 14 -41 48 -50 17 -4 22 -1 22 14 0 16 -3 18 -19 10 -15 -8 -20 -7 -25 5
-3 9 -3 20 0 26 13 20 -51 49 -69 31z"/>
<path d="M2367 2568 c4 -12 12 -26 18 -30 7 -4 16 -23 19 -42 4 -22 13 -36 26
-39 11 -3 20 -3 20 -1 0 14 -51 102 -68 117 -20 18 -20 18 -15 -5z"/>
<path d="M399 2533 c-10 -2 -15 -11 -12 -21 3 -11 -7 -26 -28 -41 -30 -22 -33
-23 -44 -7 -11 15 -13 15 -19 1 -3 -8 -1 -15 4 -15 5 0 7 -7 3 -16 -5 -14 -3
-14 18 -2 13 7 27 17 30 22 4 5 15 6 24 2 15 -6 17 -15 11 -73 -8 -72 -21
-100 -41 -83 -8 6 -16 5 -24 -3 -10 -9 -15 -8 -26 6 -18 24 -8 50 17 44 19 -5
38 18 38 47 0 26 -27 18 -34 -10 -4 -16 -12 -24 -21 -21 -7 3 -16 -2 -20 -11
-5 -15 -9 -13 -26 10 -12 16 -26 25 -35 21 -9 -3 -11 -10 -6 -17 33 -41 16
-85 -30 -81 -30 2 -33 5 -33 36 0 27 5 34 25 40 l25 6 -27 11 c-16 6 -28 18
-28 27 0 8 -9 15 -20 15 -26 0 -26 26 1 40 27 15 19 23 -15 14 -26 -6 -27 -8
-20 -62 4 -33 14 -62 26 -74 28 -28 17 -43 -31 -44 -23 -1 -44 -4 -48 -7 -3
-4 -12 -2 -20 4 -10 9 -13 6 -13 -12 0 -22 3 -24 45 -21 30 3 54 -1 70 -12 14
-9 25 -12 25 -6 0 5 13 10 30 10 32 0 54 -27 40 -50 -7 -11 -14 -11 -42 2 -47
20 -168 13 -168 -10 0 -14 9 -17 50 -16 27 1 56 7 64 13 12 10 20 9 41 -5 19
-13 31 -14 48 -7 17 8 32 5 71 -16 27 -14 51 -34 53 -43 3 -9 11 -19 19 -22
17 -6 18 6 3 21 -8 8 -5 17 10 32 22 22 46 27 55 12 3 -5 19 -11 34 -13 25 -4
28 -1 24 19 -3 18 -9 21 -31 17 -29 -6 -58 17 -46 36 8 13 62 13 70 0 11 -18
34 8 45 51 6 22 19 45 30 51 15 9 16 15 8 26 -10 11 -15 10 -28 -9 -21 -27
-40 -18 -40 20 0 15 -5 32 -12 39 -9 9 -7 21 6 51 17 37 17 40 1 65 -17 25
-36 30 -76 19z m61 -34 c16 -28 5 -51 -22 -47 -26 3 -35 32 -18 53 17 20 27
19 40 -6z m-5 -121 c2 -7 6 -36 9 -64 7 -58 -5 -71 -50 -54 -21 9 -25 15 -19
33 4 12 8 36 10 52 1 17 3 33 3 38 3 12 42 8 47 -5z m-172 -112 c-2 -24 1 -26
35 -26 73 0 86 -44 16 -52 -60 -7 -84 1 -84 28 0 12 5 26 11 30 8 5 7 9 -1 14
-16 10 -4 43 13 37 6 -2 11 -16 10 -31z"/>
<path d="M2318 2521 c-30 -29 -20 -66 30 -117 12 -13 22 -34 22 -48 0 -31 9
-56 21 -56 15 0 10 53 -10 116 -11 32 -21 72 -23 88 -4 35 -17 41 -40 17z"/>
<path d="M2905 2511 c-14 -9 -25 -19 -25 -24 0 -4 5 -5 10 -2 6 3 14 -3 18
-15 l8 -21 21 21 c32 30 51 25 56 -12 3 -26 4 -23 5 13 2 46 2 47 -33 51 -20
2 -45 -2 -60 -11z"/>
<path d="M44 2509 c-3 -6 -15 -9 -25 -6 -11 3 -19 1 -19 -4 0 -5 7 -9 15 -9 8
0 15 -6 15 -14 0 -8 -7 -21 -15 -30 -23 -22 -19 -72 5 -79 18 -5 19 0 18 45 0
36 5 57 21 79 17 22 18 29 7 29 -8 0 -18 -5 -22 -11z"/>
<path d="M606 2498 c-9 -15 -16 -37 -14 -50 3 -22 5 -21 21 10 24 45 19 78 -7
40z"/>
<path d="M2732 2483 c0 -16 5 -37 10 -47 10 -19 11 -19 24 -2 8 11 20 16 29
12 9 -3 22 -3 28 1 7 4 16 8 21 8 16 0 17 20 1 40 -14 19 -14 19 -15 -7 0 -25
-3 -28 -34 -25 -33 2 -33 2 -17 27 14 23 14 24 -1 12 -11 -9 -18 -10 -23 -2
-11 19 -22 10 -23 -17z"/>
<path d="M750 2491 c0 -5 7 -17 17 -26 15 -16 17 -16 25 0 8 13 13 14 24 4 8
-6 14 -8 14 -4 0 14 -34 34 -57 35 -13 0 -23 -4 -23 -9z"/>
<path d="M216 2475 c-3 -8 -3 -22 0 -30 7 -17 49 -20 59 -5 3 6 -3 10 -14 10
-14 0 -21 6 -21 20 0 23 -15 27 -24 5z"/>
<path d="M1214 2473 c-4 -10 -9 -29 -10 -43 -7 -58 -11 -74 -22 -78 -14 -4 -3
-75 15 -85 7 -4 13 -15 13 -22 0 -8 5 -15 10 -15 19 0 22 30 6 55 -18 27 -21
55 -6 55 6 0 10 8 10 19 0 11 9 21 21 24 23 6 17 27 -7 27 -11 0 -13 6 -9 23
8 24 8 25 6 45 -2 18 -18 15 -27 -5z"/>
<path d="M1405 2480 c-3 -5 2 -21 13 -35 l20 -25 -3 32 c-2 33 -18 47 -30 28z"/>
<path d="M2173 2456 c1 -40 17 -50 17 -11 0 14 0 28 1 32 0 4 -4 9 -9 11 -6 2
-10 -13 -9 -32z"/>
<path d="M2684 2438 c18 -10 18 -12 2 -23 -15 -12 -14 -13 8 -11 30 1 29 1 16
27 -6 10 -18 19 -28 19 -15 -1 -15 -2 2 -12z"/>
<path d="M2868 2422 c-13 -2 -18 -13 -18 -40 1 -32 2 -35 12 -17 6 11 16 25
24 31 16 13 4 31 -18 26z"/>
<path d="M1460 2403 c0 -7 9 -13 20 -13 11 0 23 0 28 0 4 0 7 5 7 12 0 6 -12
12 -27 12 -17 1 -28 -4 -28 -11z"/>
<path d="M2434 2395 c-4 -9 -3 -19 1 -23 4 -4 10 -1 12 6 4 10 9 9 24 -4 11
-9 21 -15 24 -12 3 2 -9 14 -25 27 -26 19 -31 20 -36 6z"/>
<path d="M2930 2375 c-10 -12 -9 -16 3 -21 17 -6 37 2 37 16 0 15 -29 19 -40
5z"/>
<path d="M2134 2369 c-3 -5 -1 -15 5 -22 7 -9 7 -26 -1 -55 -9 -36 -13 -40
-29 -31 -13 7 -25 7 -37 0 -15 -9 -14 -10 6 -11 16 0 26 -7 29 -21 3 -12 11
-18 19 -15 8 3 14 1 14 -4 0 -13 27 -13 35 0 4 6 -1 24 -9 42 -19 37 -20 48
-4 48 6 0 20 8 30 17 19 17 20 16 39 -7 10 -14 19 -20 19 -15 0 17 -30 55 -43
55 -7 0 -24 7 -39 14 -17 9 -30 11 -34 5z"/>
<path d="M1643 2343 c2 -16 8 -37 15 -48 10 -17 11 -13 12 28 0 35 -4 47 -15
47 -10 0 -14 -8 -12 -27z"/>
<path d="M2695 2353 c4 -10 16 -49 27 -88 10 -38 24 -81 31 -95 18 -38 105
-122 112 -109 4 6 -2 21 -14 33 l-21 23 20 25 c11 15 20 28 20 31 0 2 -25 2
-55 0 -40 -3 -55 0 -55 9 -2 66 -11 141 -19 157 -6 10 -7 21 -4 25 3 3 -6 6
-21 6 -23 0 -27 -3 -21 -17z"/>
<path d="M1083 2328 c-32 -15 -29 -30 5 -22 36 9 43 14 37 25 -7 11 -14 11
-42 -3z"/>
<path d="M2903 2298 c1 -15 8 -28 15 -28 6 0 12 3 12 8 0 4 3 17 6 29 5 18 2
22 -14 20 -16 -1 -20 -7 -19 -29z"/>
<path d="M650 2299 c0 -24 23 -21 28 4 2 10 -3 17 -12 17 -10 0 -16 -9 -16
-21z"/>
<path d="M610 2225 c0 -30 5 -55 10 -55 6 0 10 25 10 55 0 30 -4 55 -10 55 -5
0 -10 -25 -10 -55z"/>
<path d="M1498 2227 c-2 -44 0 -53 10 -45 7 6 10 18 7 26 -3 8 0 21 6 29 10
11 9 17 -3 30 -15 14 -16 10 -20 -40z"/>
<path d="M2260 2254 c5 -16 14 -49 21 -74 12 -43 40 -76 84 -102 12 -7 6 6
-17 34 -21 25 -47 70 -58 99 -24 60 -45 91 -30 43z"/>
<path d="M1645 2261 c-6 -11 10 -92 24 -119 5 -9 14 -39 20 -67 12 -48 27 -69
43 -59 11 7 10 42 -2 46 -6 2 -20 44 -31 93 -12 50 -23 96 -25 103 -4 14 -20
16 -29 3z"/>
<path d="M2857 2263 c-4 -3 -7 -15 -7 -27 0 -19 0 -19 20 2 11 12 20 24 20 27
0 7 -25 6 -33 -2z"/>
<path d="M1930 2229 c7 -11 11 -42 9 -67 -2 -41 8 -83 27 -113 8 -14 -47 -33
-86 -31 -28 2 -32 0 -18 -8 22 -13 138 -20 138 -8 0 15 -5 23 -13 20 -5 -1 -4
5 1 14 6 11 4 30 -6 55 -12 31 -13 45 -4 64 10 21 9 27 -2 31 -8 3 -18 19 -21
35 -4 16 -13 29 -21 29 -12 0 -12 -4 -4 -21z"/>
<path d="M1065 2209 c-9 -13 12 -29 38 -29 26 0 17 34 -10 38 -11 2 -24 -2
-28 -9z"/>
<path d="M2420 2207 c0 -22 68 -136 104 -175 17 -18 36 -30 43 -28 18 7 40
-30 48 -81 5 -33 11 -43 25 -43 28 0 32 14 18 67 -14 57 -34 83 -62 83 -39 0
-84 36 -91 73 -7 36 -85 131 -85 104z"/>
<path d="M2920 2212 c0 -5 3 -12 7 -16 4 -3 8 -27 9 -51 1 -40 -1 -45 -20 -45
-12 0 -27 5 -34 12 -9 9 -12 7 -12 -9 0 -17 8 -21 57 -26 31 -3 60 -12 64 -19
6 -9 9 -4 9 13 0 15 -7 29 -14 32 -21 8 -49 64 -36 72 7 4 7 13 0 26 -11 19
-30 26 -30 11z"/>
<path d="M1200 2190 c0 -11 4 -20 8 -20 5 0 17 9 27 20 18 20 17 20 -8 20 -20
0 -27 -5 -27 -20z"/>
<path d="M1287 2193 c-3 -5 -8 -26 -11 -48 l-7 -41 53 -16 c29 -10 69 -20 88
-24 30 -6 33 -5 22 9 -7 8 -12 19 -11 23 4 23 -3 24 -19 4 -16 -20 -20 -21
-33 -8 -8 8 -27 18 -43 22 -27 7 -28 9 -22 46 6 36 -4 54 -17 33z"/>
<path d="M1327 2193 c-4 -3 3 -13 14 -21 18 -12 23 -12 30 -1 12 20 -27 40
-44 22z"/>
<path d="M2650 2189 c0 -19 28 -53 72 -85 47 -35 52 -29 17 18 -16 24 -37 43
-44 43 -8 0 -21 9 -29 20 -12 16 -15 17 -16 4z"/>
<path d="M1836 2159 c-3 -17 -14 -38 -24 -45 -16 -13 -16 -15 -1 -24 9 -5 20
-22 24 -37 6 -26 7 -27 20 -9 12 15 12 22 0 40 -16 23 -9 42 17 47 14 4 14 7
-6 32 l-23 29 -7 -33z"/>
<path d="M2122 2166 c0 -6 -2 -19 -7 -29 -4 -9 -4 -30 0 -45 3 -15 8 -37 9
-50 1 -13 15 -34 29 -48 15 -14 27 -29 27 -35 0 -6 5 -7 11 -3 8 5 8 9 -1 14
-9 5 -9 13 -1 27 9 18 7 20 -15 15 -22 -4 -25 -1 -23 19 2 13 -2 34 -9 46 -15
28 -15 63 0 63 7 0 22 -12 35 -27 20 -26 21 -26 16 -5 -5 19 -1 22 26 22 51 0
39 27 -16 35 -75 12 -83 12 -81 1z"/>
<path d="M1420 2160 c0 -17 5 -25 15 -25 6 0 16 -4 23 -9 11 -7 12 -4 3 12
-11 21 -41 37 -41 22z"/>
<path d="M1050 2141 c0 -5 6 -11 13 -14 9 -3 9 -8 1 -18 -5 -8 -15 -26 -22
-41 -9 -23 -9 -26 3 -21 8 3 15 11 15 18 0 8 12 23 27 34 14 12 24 22 22 24
-50 29 -59 32 -59 18z"/>
<path d="M0 2106 c0 -8 15 -13 42 -14 47 -2 41 12 -9 21 -24 5 -33 3 -33 -7z"/>
<path d="M127 2107 c-5 -14 0 -17 24 -17 22 0 32 -6 36 -19 4 -16 18 -20 89
-26 103 -9 154 -1 154 24 0 20 -19 20 -63 2 -41 -16 -57 -14 -65 10 -7 19 -9
19 -21 5 -17 -20 -31 -20 -67 -1 -16 8 -39 15 -51 15 -12 0 -23 5 -25 12 -3 7
-7 6 -11 -5z"/>
<path d="M2218 2075 c-5 -22 -2 -25 23 -25 34 0 36 9 9 33 -26 22 -27 22 -32
-8z"/>
<path d="M1220 2069 c0 -15 5 -20 22 -17 34 5 37 38 4 38 -20 0 -26 -5 -26
-21z"/>
<path d="M1580 2062 c0 -10 -5 -23 -10 -28 -7 -7 -5 -17 5 -30 12 -16 14 -17
15 -2 0 9 7 23 15 32 17 17 10 46 -11 46 -8 0 -14 -8 -14 -18z"/>
<path d="M492 2039 c-16 -25 -15 -28 8 -22 26 7 31 15 16 29 -10 9 -15 7 -24
-7z"/>
<path d="M1490 2049 c0 -6 -9 -23 -19 -38 -11 -15 -22 -45 -25 -66 -3 -22 -3
-31 1 -20 3 11 13 31 23 45 9 14 20 33 23 43 4 9 11 17 16 17 6 0 8 7 5 15 -7
17 -24 20 -24 4z"/>
<path d="M2895 2036 c-27 -31 -9 -131 30 -170 27 -27 40 -81 32 -132 -5 -31
-4 -34 19 -34 22 0 24 4 24 50 0 28 -9 75 -19 106 -20 56 -16 104 9 104 5 0
10 14 10 32 l0 31 -31 -46 c-33 -50 -49 -59 -49 -28 0 11 -5 23 -12 27 -8 5
-7 10 4 18 24 18 29 43 10 49 -10 2 -22 -1 -27 -7z"/>
<path d="M27 2023 c-22 -4 -27 -10 -27 -31 l0 -27 178 2 c98 1 189 6 203 11
13 5 33 11 44 13 11 3 21 13 24 24 3 20 3 20 -18 1 -19 -17 -31 -18 -123 -12
-57 3 -129 9 -160 13 -49 5 -58 3 -58 -11 0 -9 -4 -16 -10 -16 -5 0 -10 9 -10
20 0 11 -3 19 -7 19 -5 -1 -20 -4 -36 -6z"/>
<path d="M1247 2023 c-15 -15 -5 -32 24 -42 47 -16 50 -14 21 19 -27 31 -34
35 -45 23z"/>
<path d="M1387 2023 c-16 -25 -15 -51 1 -67 13 -11 17 -31 17 -80 0 -37 3 -59
8 -50 4 8 14 14 21 14 17 0 9 52 -10 63 -7 4 -11 14 -7 23 3 8 1 25 -5 37 -6
12 -12 33 -14 47 -2 17 -6 21 -11 13z"/>
<path d="M2300 2006 c0 -28 -1 -28 -18 -13 -22 20 -43 22 -60 5 -21 -21 -13
-26 38 -23 27 2 52 0 55 -6 4 -5 16 -9 27 -9 20 0 21 1 4 18 -9 9 -23 26 -31
37 -14 19 -14 19 -15 -9z"/>
<path d="M2344 2019 c-3 -5 6 -13 21 -19 14 -5 29 -20 34 -32 4 -12 10 -17 14
-11 11 18 -21 68 -43 69 -11 1 -23 -3 -26 -7z"/>
<path d="M1753 2008 c1 -6 -9 -15 -23 -19 -21 -6 -18 -7 18 -8 30 -1 42 3 42
13 0 8 -7 17 -16 20 -22 8 -24 8 -21 -6z"/>
<path d="M2435 1974 c4 -50 15 -74 15 -31 0 36 25 35 38 -2 6 -16 8 -32 4 -36
-3 -3 4 -8 16 -12 12 -3 22 -12 22 -19 0 -14 16 -23 70 -39 l25 -7 -22 21
c-12 11 -27 21 -33 21 -5 0 -10 5 -10 10 0 6 -12 22 -26 35 -15 14 -22 25 -15
25 6 0 11 6 11 14 0 18 -49 58 -62 50 -5 -3 -15 -1 -22 5 -11 10 -13 3 -11
-35z"/>
<path d="M1640 2001 c-14 -4 -24 -14 -22 -21 2 -7 -3 -17 -9 -21 -10 -6 -10
-16 1 -48 11 -35 11 -46 -3 -78 -26 -63 -54 -287 -37 -298 5 -3 10 1 13 7 2 7
4 -21 4 -62 0 -59 -1 -66 -7 -35 -12 76 -21 -2 -17 -150 3 -123 2 -145 -15
-178 -11 -22 -17 -41 -15 -43 2 -3 12 10 20 28 l17 33 0 -32 c0 -24 -5 -33
-22 -39 -13 -3 -42 -22 -65 -40 -28 -23 -43 -30 -46 -21 -3 6 -6 -2 -6 -19 -1
-18 -15 -65 -32 -105 -46 -110 -62 -189 -39 -189 6 0 10 18 10 41 0 32 3 40
15 35 11 -4 15 2 15 24 0 19 9 35 25 48 28 23 32 32 11 32 -12 0 -11 8 6 40
18 32 26 39 42 34 17 -5 19 -4 9 7 -18 18 -16 39 2 39 9 0 18 7 21 15 4 9 14
14 23 13 10 -2 17 5 19 21 2 13 12 25 22 28 24 6 30 33 19 84 -5 23 -7 49 -5
58 9 27 15 137 7 117 -7 -18 -8 -18 -14 -2 -10 26 -8 64 3 71 6 3 10 0 10 -7
0 -9 3 -9 10 2 8 13 10 13 10 -1 0 -26 79 -116 136 -155 30 -20 51 -41 47 -47
-3 -6 -1 -7 6 -3 6 4 9 12 6 17 -3 5 1 6 9 3 11 -4 16 0 16 10 0 9 -6 16 -13
16 -7 0 -41 23 -76 52 -51 41 -70 64 -94 117 -37 81 -49 203 -24 242 16 26 41
129 32 137 -7 7 -34 -60 -29 -73 3 -6 -7 -22 -22 -35 l-26 -25 7 30 c4 17 18
63 31 103 14 40 21 78 18 84 -4 7 -2 8 4 4 15 -9 11 18 -8 57 -12 25 -11 31 9
57 12 17 20 30 19 29 -2 -1 -14 -4 -28 -8z"/>
<path d="M1819 1993 c5 -10 12 -26 15 -35 3 -10 14 -18 25 -18 11 0 23 -5 26
-10 4 -6 10 -8 15 -5 16 10 55 -23 79 -65 12 -22 25 -40 27 -40 3 0 -6 21 -20
46 -29 52 -33 79 -12 71 8 -3 17 1 20 9 3 8 1 12 -4 9 -5 -3 -30 -9 -55 -12
-52 -6 -95 15 -95 47 0 11 -7 20 -15 20 -11 0 -13 -4 -6 -17z"/>
<path d="M518 1971 c-26 -26 -26 -28 -7 -39 21 -13 22 -13 33 41 4 15 5 26 4
26 -2 -1 -15 -14 -30 -28z"/>
<path d="M1156 1968 c-6 -20 -2 -34 15 -58 20 -27 24 -29 30 -13 4 12 1 20
-10 24 -9 3 -19 21 -22 40 -5 34 -5 34 -13 7z"/>
<path d="M2030 1960 c11 -11 20 -27 20 -35 0 -8 5 -15 10 -15 7 0 7 6 0 20 -9
17 -8 20 7 20 14 1 13 4 -7 15 -37 21 -53 18 -30 -5z"/>
<path d="M2734 1925 c-6 -16 9 -34 29 -35 13 0 8 27 -8 40 -12 10 -16 9 -21
-5z"/>
<path d="M1550 1905 c-7 -14 -19 -25 -26 -25 -19 0 -26 -63 -15 -157 0 -7 10
-13 22 -13 20 0 20 1 3 29 -17 29 -13 68 7 56 7 -5 8 5 4 29 -7 34 -6 36 16
34 19 -2 23 1 21 17 -2 11 -4 28 -5 38 -2 24 -11 21 -27 -8z"/>
<path d="M1810 1922 c0 -8 9 -26 19 -41 11 -15 23 -40 27 -57 4 -16 12 -35 18
-43 6 -8 10 -16 9 -18 -2 -1 -3 -9 -3 -15 0 -7 5 -5 11 5 8 13 7 22 -3 34 -8
10 -8 14 -1 10 6 -4 15 -2 19 4 4 8 3 9 -4 5 -12 -7 -35 27 -25 38 3 3 1 6 -5
6 -7 0 -12 6 -12 13 0 17 -49 75 -50 59z"/>
<path d="M2250 1912 c0 -11 6 -22 14 -25 7 -3 16 -20 19 -39 4 -18 13 -63 20
-99 7 -36 12 -85 10 -110 -3 -48 14 -102 29 -93 5 3 2 14 -7 24 -13 15 -14 24
-4 63 21 76 -17 231 -68 285 -11 11 -13 10 -13 -6z"/>
<path d="M36 1903 c-2 -2 1 -15 8 -28 12 -28 56 -35 56 -10 0 20 39 19 68 -1
20 -14 22 -14 22 4 0 15 -9 21 -37 26 -66 9 -112 13 -117 9z"/>
<path d="M2406 1865 c9 -40 21 -52 36 -37 9 9 9 12 0 12 -6 0 -18 12 -27 28
l-15 27 6 -30z"/>
<path d="M1330 1871 c0 -5 -9 -11 -20 -13 -15 -2 -17 -7 -10 -18 8 -13 14 -11
37 13 22 22 24 27 10 27 -9 0 -17 -4 -17 -9z"/>
<path d="M2045 1815 c20 -38 46 -79 58 -90 21 -20 21 -20 6 0 -8 11 -26 41
-40 68 -13 26 -32 57 -42 70 -10 12 -1 -9 18 -48z"/>
<path d="M2681 1861 c-10 -7 -11 -13 -2 -27 6 -11 11 -13 11 -6 0 6 9 12 20
12 13 0 18 5 14 15 -7 17 -22 19 -43 6z"/>
<path d="M1769 1844 c-6 -101 5 -144 52 -193 36 -38 35 -6 0 35 -17 19 -31 38
-31 42 -1 4 -3 34 -7 67 -6 61 -12 83 -14 49z"/>
<path d="M2106 1845 c5 -13 4 -16 -4 -11 -7 4 -12 5 -12 3 0 -11 31 -77 36
-77 3 0 4 6 1 13 -16 43 -18 59 -8 53 17 -11 13 10 -4 24 -13 11 -14 10 -9 -5z"/>
<path d="M2475 1850 c-4 -6 7 -10 24 -10 17 0 31 5 31 10 0 6 -11 10 -24 10
-14 0 -28 -4 -31 -10z"/>
<path d="M1917 1823 c3 -10 9 -22 12 -28 3 -5 6 -16 7 -24 2 -7 12 -23 23 -35
21 -23 30 -62 11 -51 -6 4 -7 11 -4 17 4 7 2 8 -4 4 -11 -7 -55 16 -49 25 1 2
-6 -4 -16 -13 -10 -10 -22 -18 -27 -18 -6 0 -10 -5 -10 -10 0 -7 13 -8 34 -5
20 4 36 2 40 -4 4 -6 23 -11 42 -11 41 0 45 18 12 54 -28 29 -44 49 -45 56 -1
3 -6 17 -12 33 -11 29 -24 38 -14 10z"/>
<path d="M545 1820 c-12 -19 -24 -70 -16 -70 9 0 35 70 28 76 -3 3 -8 0 -12
-6z"/>
<path d="M199 1816 c-4 -3 -133 -14 -183 -16 -29 0 -8 -15 21 -15 15 0 28 -6
31 -14 4 -11 -3 -13 -32 -8 -20 3 -36 2 -36 -2 0 -5 13 -11 30 -13 23 -4 37 2
60 25 23 23 34 27 42 19 17 -17 53 -15 68 3 11 14 10 32 -1 21z"/>
<path d="M1321 1799 c-5 -13 -19 -47 -30 -76 -24 -60 -30 -121 -7 -67 8 18 19
35 25 38 6 4 11 14 11 23 0 9 9 27 21 39 20 21 20 24 6 45 l-16 22 -10 -24z"/>
<path d="M2744 1796 c-4 -10 5 -32 20 -54 14 -21 26 -43 26 -50 0 -20 -18 -13
-37 13 -10 14 -26 36 -35 48 -17 22 -17 22 -18 1 0 -12 32 -54 81 -105 44 -46
92 -103 106 -126 13 -23 40 -52 60 -64 19 -12 38 -31 43 -43 7 -17 9 -15 9 16
1 32 -5 42 -47 78 -59 49 -81 85 -64 102 7 7 12 17 12 23 0 5 -8 1 -16 -10
-15 -20 -15 -20 -35 4 -10 13 -19 31 -19 41 0 10 -7 23 -15 30 -8 7 -15 21
-15 32 0 11 -11 33 -25 50 -21 24 -26 27 -31 14z"/>
<path d="M2144 1724 c0 -49 3 -64 14 -64 10 0 13 -10 10 -40 -2 -22 0 -40 5
-40 5 0 7 -6 4 -14 -3 -8 -3 -17 0 -20 11 -10 14 -78 4 -72 -5 3 -11 -10 -13
-29 -2 -19 0 -35 4 -35 4 0 8 -8 9 -17 0 -11 3 -13 6 -5 8 20 18 14 21 -12 1
-13 -5 -26 -13 -29 -9 -4 -12 -1 -9 7 3 8 -4 16 -15 19 -12 3 -21 1 -21 -4 0
-5 4 -9 9 -9 5 0 9 -6 8 -12 -1 -48 4 -59 26 -56 20 3 22 8 21 68 0 36 -4 92
-7 125 -4 33 -9 83 -12 110 -6 62 -24 143 -39 172 -9 18 -11 12 -12 -43z"/>
<path d="M1370 1763 c1 -14 26 -41 40 -44 20 -3 50 11 50 23 0 5 -4 7 -9 3 -5
-3 -12 -1 -15 4 -3 5 -15 7 -26 4 -11 -3 -20 0 -20 6 0 6 -4 11 -10 11 -5 0
-10 -3 -10 -7z"/>
<path d="M2414 1736 c-27 -30 -22 -136 7 -136 6 0 6 6 0 19 -11 19 -9 73 4
104 9 22 4 29 -11 13z"/>
<path d="M2070 1710 c6 -11 8 -25 4 -31 -7 -12 13 -29 34 -29 7 0 2 15 -14 40
-28 42 -42 54 -24 20z"/>
<path d="M775 1693 c-11 -3 -24 -12 -28 -19 -5 -8 -13 -12 -18 -8 -6 3 -16 -2
-23 -11 -15 -21 -85 -47 -100 -37 -6 3 -16 7 -23 8 -6 1 -25 17 -41 35 -17 19
-33 31 -37 27 -4 -3 3 -16 14 -27 11 -11 18 -27 15 -35 -7 -19 14 -30 52 -28
26 2 35 -3 53 -30 14 -23 21 -27 21 -15 0 9 8 17 17 17 15 0 14 2 -3 14 -23
17 -20 21 29 30 66 12 59 -25 -15 -74 -4 -4 -9 -19 -12 -35 -2 -17 -1 -22 1
-11 4 15 11 18 42 13 36 -4 37 -4 33 24 -3 21 0 29 11 29 9 0 19 -4 22 -10 3
-5 14 -10 23 -10 9 0 23 -13 30 -30 20 -45 35 -37 28 14 -4 30 -16 55 -36 76
-21 22 -30 27 -30 16 0 -19 -21 -21 -38 -4 -17 17 -15 45 4 52 37 14 73 6 93
-22 20 -29 51 -39 51 -16 0 7 6 14 13 17 7 2 8 8 3 13 -5 5 -11 4 -13 -3 -3
-7 -10 -13 -17 -13 -16 0 -53 40 -46 49 6 8 -48 11 -75 4z"/>
<path d="M1676 1685 c-19 -14 -18 -15 11 -15 17 0 43 -7 59 -15 35 -18 37 -16
21 18 -9 20 -19 27 -42 27 -16 -1 -39 -7 -49 -15z"/>
<path d="M1360 1665 c0 -30 11 -32 33 -7 23 25 21 32 -8 32 -20 0 -25 -5 -25
-25z"/>
<path d="M2025 1680 c-6 -10 1 -14 18 -11 5 1 6 -3 3 -8 -3 -5 0 -14 8 -20 11
-9 12 -6 9 13 -5 26 -28 42 -38 26z"/>
<path d="M462 1657 c-7 -18 -16 -25 -24 -21 -6 4 -30 11 -52 15 -32 6 -45 3
-64 -12 -14 -10 -33 -19 -43 -19 -10 0 -30 -5 -46 -11 l-28 -12 25 -7 c14 -4
29 -3 34 1 5 4 22 5 38 2 24 -5 30 -2 35 16 8 33 37 26 53 -14 14 -35 32 -30
23 6 -7 25 22 26 36 2 7 -13 5 -23 -7 -37 -13 -14 -14 -20 -5 -23 9 -3 10 -10
3 -22 -5 -10 -6 -21 -3 -25 9 -8 45 53 38 65 -4 5 1 16 10 25 10 11 12 20 6
28 -5 6 -11 25 -13 41 l-4 30 -12 -28z"/>
<path d="M1889 1631 c-13 -11 -19 -20 -12 -21 6 0 14 6 16 13 4 9 7 9 14 -1 8
-10 21 -10 62 -1 29 6 51 12 49 14 -2 1 -26 5 -54 9 -43 5 -55 3 -75 -13z"/>
<path d="M2080 1644 c-1 -5 -3 -45 -5 -89 l-4 -80 13 60 c10 44 15 55 21 42 4
-11 2 -28 -5 -42 -7 -13 -10 -29 -7 -37 2 -7 8 -2 12 15 4 15 13 27 20 27 19
0 -2 74 -26 96 -10 9 -19 13 -19 8z"/>
<path d="M2226 1624 c4 -16 14 -41 22 -56 l16 -27 18 21 c21 24 16 38 -12 31
-15 -4 -20 0 -20 15 0 11 -7 25 -16 33 -13 11 -14 9 -8 -17z"/>
<path d="M2487 1627 c-5 -14 38 -65 48 -56 2 3 1 18 -4 35 -8 31 -35 44 -44
21z"/>
<path d="M2560 1634 c0 -18 38 -75 53 -80 34 -11 40 11 13 43 -21 25 -66 51
-66 37z"/>
<path d="M1674 1615 c-18 -14 -18 -14 4 -15 13 0 20 4 17 10 -3 6 -1 10 4 10
6 0 11 -4 11 -10 0 -5 12 -10 26 -10 22 0 25 2 14 15 -16 19 -51 19 -76 0z"/>
<path d="M1374 1598 c-17 -13 -38 -31 -48 -40 -16 -16 -15 -18 13 -33 39 -20
54 -19 76 5 17 18 16 19 -9 26 -30 7 -33 19 -10 32 9 5 15 15 13 21 -3 8 -15
4 -35 -11z"/>
<path d="M2932 1598 c3 -23 52 -58 64 -46 6 7 -48 68 -61 68 -3 0 -5 -10 -3
-22z"/>
<path d="M1224 1593 c-5 -9 -24 -15 -46 -15 -30 0 -37 -4 -40 -21 -2 -12 -8
-21 -13 -20 -84 13 -105 14 -105 4 0 -10 12 -12 115 -16 22 0 46 -4 53 -9 7
-4 12 -2 12 4 0 13 30 46 47 51 9 3 9 8 -1 21 -11 15 -13 15 -22 1z"/>
<path d="M91 1581 c-8 -5 -23 -8 -33 -6 -12 3 -23 -6 -33 -24 -12 -25 -12 -31
0 -47 17 -22 19 -56 5 -70 -14 -14 46 -74 75 -74 13 0 25 6 28 13 3 8 10 6 21
-8 8 -11 16 -15 16 -8 0 6 -5 15 -11 19 -6 3 -19 20 -30 37 -10 18 -26 32 -35
32 -9 0 -26 16 -37 37 -19 32 -20 39 -8 62 8 14 17 23 21 21 12 -7 70 6 70 16
0 12 -31 11 -49 0z m18 -168 c11 -9 18 -20 15 -25 -9 -14 -44 -9 -44 7 0 8 -7
15 -15 15 -8 0 -15 5 -15 10 0 16 38 12 59 -7z"/>
<path d="M935 1569 c-4 -6 -12 -8 -19 -6 -10 4 -13 -18 -7 -56 0 -5 13 1 27
12 15 11 30 18 35 15 5 -3 9 4 9 14 0 11 -7 23 -16 26 -21 8 -22 8 -29 -5z"/>
<path d="M550 1544 c0 -16 -5 -35 -11 -41 -16 -16 -3 -32 22 -26 16 5 20 2 17
-14 -1 -11 2 -21 7 -21 6 -1 10 5 10 14 0 8 7 19 15 24 13 8 12 10 -4 10 -12
0 -16 5 -12 16 3 9 -5 26 -19 42 l-25 27 0 -31z"/>
<path d="M1516 1562 c-4 -7 -19 -9 -38 -5 -28 5 -30 4 -23 -16 4 -14 2 -23 -9
-27 -24 -9 -10 -22 19 -16 16 3 33 -2 44 -12 23 -21 36 -8 15 16 -14 14 -14
21 -4 32 6 9 10 21 8 28 -3 9 -6 9 -12 0z"/>
<path d="M2415 1534 c21 -50 19 -74 -4 -74 -11 0 -23 5 -26 10 -5 8 -11 7 -21
-1 -11 -9 -21 -9 -41 0 -35 16 -43 4 -13 -20 22 -17 40 -19 135 -18 61 1 118
-2 127 -6 9 -3 21 -20 27 -36 7 -19 15 -27 25 -23 8 3 28 -2 45 -10 36 -19 67
-21 77 -4 5 8 2 9 -9 5 -22 -8 -32 10 -16 29 7 9 20 12 33 8 21 -6 21 -6 1 10
-26 20 -45 20 -61 -1 -10 -15 -15 -16 -26 -5 -11 11 -10 16 7 28 19 14 18 15
-18 50 -36 36 -37 36 -37 11 0 -13 7 -30 15 -37 8 -7 15 -24 15 -39 -1 -26 -1
-25 -35 14 -19 22 -33 46 -30 53 3 7 -5 12 -21 12 -21 0 -24 -4 -19 -20 4 -12
2 -20 -5 -20 -8 0 -10 10 -7 26 3 18 0 27 -12 32 -9 3 -22 13 -29 21 -10 13
-11 8 -6 -31 5 -39 3 -48 -9 -48 -9 0 -19 10 -22 23 -12 40 -40 96 -48 97 -4
0 0 -16 8 -36z"/>
<path d="M1888 1515 c2 -14 11 -25 18 -25 17 0 18 22 2 38 -19 19 -26 14 -20
-13z"/>
<path d="M1728 1483 c-29 -53 -34 -73 -19 -73 16 0 52 72 49 98 -3 23 -6 21
-30 -25z"/>
<path d="M1986 1492 c10 -84 14 -90 37 -64 15 17 15 21 0 55 -24 51 -43 56
-37 9z"/>
<path d="M204 1494 c-19 -19 -21 -24 -10 -39 9 -13 15 -15 20 -6 4 6 16 9 27
6 14 -5 19 -2 19 14 0 11 5 23 10 26 19 12 10 23 -16 21 -15 0 -37 -11 -50
-22z"/>
<path d="M113 1497 c-45 -10 -54 -21 -28 -31 8 -3 15 -1 15 4 0 6 9 10 20 10
11 0 20 -4 20 -10 0 -5 9 -1 20 10 33 33 27 35 -47 17z"/>
<path d="M2113 1491 c-12 -10 -32 -44 -43 -74 -17 -44 -34 -67 -86 -111 -36
-31 -60 -56 -54 -56 23 0 -10 -28 -40 -35 -16 -3 -33 -12 -39 -19 -10 -12 -8
-82 3 -93 3 -4 4 15 2 41 -3 27 -2 46 1 43 20 -20 161 92 188 149 9 19 20 34
25 34 14 0 12 -9 -11 -46 -11 -19 -16 -34 -10 -34 6 0 16 10 22 23 12 22 13
22 21 -8 4 -16 6 -50 3 -75 -4 -40 -4 -42 5 -15 6 17 9 44 8 60 -1 17 2 37 7
44 5 10 4 12 -3 7 -15 -9 -15 -1 -1 26 8 15 8 19 -1 13 -8 -5 -9 3 -4 32 3 21
10 43 14 48 6 8 20 66 16 65 0 -1 -11 -9 -23 -19z"/>
<path d="M1821 1491 c-8 -5 -20 -7 -28 -4 -7 3 -13 0 -13 -6 0 -12 19 -16 60
-12 25 2 54 21 33 21 -6 0 -17 2 -25 5 -7 3 -19 1 -27 -4z"/>
<path d="M296 1464 c-7 -18 32 -28 49 -14 8 7 15 16 15 20 0 12 -59 7 -64 -6z"/>
<path d="M384 1469 c-10 -17 13 -36 27 -22 12 12 4 33 -11 33 -5 0 -12 -5 -16
-11z"/>
<path d="M650 1433 c0 -26 -4 -33 -20 -33 -21 0 -28 -24 -10 -35 6 -4 8 -15 5
-26 -7 -23 7 -25 25 -4 10 12 9 16 -4 21 -32 12 -15 24 25 18 40 -7 40 -7 33
21 -5 19 -3 26 4 21 6 -3 13 -2 17 4 4 6 13 7 23 1 24 -13 47 12 27 29 -12 10
-20 9 -41 -5 -20 -13 -28 -14 -34 -5 -4 7 -13 9 -20 5 -7 -4 -16 -2 -21 6 -6
10 -9 4 -9 -18z"/>
<path d="M2780 1442 c0 -19 18 -42 32 -42 12 0 9 35 -4 48 -17 17 -28 15 -28
-6z"/>
<path d="M2250 1428 c0 -16 4 -28 8 -28 5 0 14 -18 21 -40 6 -22 17 -40 23
-40 9 0 9 3 0 12 -7 7 -12 21 -12 33 -1 11 -9 36 -20 55 -19 35 -19 35 -20 8z"/>
<path d="M519 1436 c-10 -47 -39 -77 -39 -41 0 8 -5 15 -11 15 -5 0 -7 -5 -4
-10 3 -6 -1 -13 -9 -16 -9 -3 -16 -15 -16 -25 0 -20 15 -26 25 -9 9 15 45 12
51 -5 4 -8 11 -15 16 -15 6 0 8 7 5 15 -4 8 -3 16 1 19 12 7 8 69 -5 74 -7 2
-14 1 -14 -2z"/>
<path d="M937 1426 c10 -14 4 -58 -9 -74 -14 -16 -6 -24 16 -16 9 3 16 16 16
28 0 38 35 62 42 29 3 -15 6 -15 17 5 7 13 11 25 9 27 -2 1 -24 5 -50 7 -34 4
-46 2 -41 -6z"/>
<path d="M1860 1430 c-41 -4 -85 -11 -97 -15 -24 -8 -32 -31 -10 -32 6 0 21
-4 32 -9 18 -7 19 -6 6 9 -8 10 -12 19 -10 21 6 6 129 15 129 11 0 -3 -12 -11
-27 -20 l-28 -16 30 6 c17 4 38 14 48 22 17 16 23 34 10 31 -5 -1 -42 -4 -83
-8z"/>
<path d="M260 1420 c-8 -5 -23 -7 -33 -4 -17 5 -17 3 -7 -17 11 -19 14 -20 24
-8 7 8 18 20 26 27 17 14 11 16 -10 2z"/>
<path d="M2861 1413 c-1 -7 -8 -13 -17 -13 -11 0 -14 -6 -8 -22 3 -13 11 -24
15 -26 5 -2 9 -11 9 -19 0 -12 -7 -14 -27 -8 -26 6 -37 16 -46 40 -5 13 -13 5
-21 -22 -6 -18 -3 -23 11 -23 10 0 45 -14 78 -30 36 -17 61 -25 64 -18 2 5 -2
13 -8 17 -16 10 -26 71 -12 71 6 0 16 -11 21 -25 5 -14 16 -25 25 -25 9 0 15
-9 15 -22 0 -20 1 -21 20 -3 11 10 20 30 20 44 0 17 -3 22 -9 13 -11 -18 -109
32 -121 61 -5 12 -9 16 -9 10z"/>
<path d="M1318 1398 c19 -19 14 -38 -9 -38 -17 0 -20 5 -16 21 4 15 1 19 -11
17 -9 -2 -17 -10 -17 -18 0 -8 -7 -15 -15 -15 -8 0 -15 7 -15 15 0 16 -8 17
-42 5 -14 -4 -20 -12 -16 -22 4 -11 2 -14 -8 -11 -8 3 -14 15 -13 27 1 25 -9
27 -30 5 -9 -8 -20 -13 -25 -10 -14 9 -61 -15 -61 -30 0 -21 -17 -25 -34 -9
-16 16 -23 11 -22 -19 1 -19 26 -36 26 -18 0 17 61 26 71 11 7 -11 9 -10 9 4
0 9 5 17 10 17 6 0 10 -7 10 -16 0 -8 5 -12 11 -8 6 3 8 17 4 31 -5 21 -3 24
10 19 9 -3 18 -6 21 -6 2 0 0 -7 -3 -17 -5 -12 -3 -14 8 -8 21 14 182 21 200
9 4 -2 11 1 14 6 5 8 12 7 23 -3 20 -16 85 -21 127 -9 l29 8 -46 13 c-30 8
-52 10 -63 4 -19 -11 -104 25 -105 45 0 6 -8 12 -17 12 -13 0 -14 -3 -5 -12z"/>
<path d="M850 1390 c0 -5 9 -19 19 -29 16 -16 20 -17 25 -5 3 8 -1 14 -9 14
-9 0 -12 6 -9 15 4 9 0 15 -10 15 -9 0 -16 -4 -16 -10z"/>
<path d="M180 1377 c0 -8 11 -19 25 -25 13 -6 22 -17 20 -24 -3 -7 4 -19 15
-26 18 -11 20 -10 20 8 0 11 -11 27 -25 36 -14 9 -25 23 -25 30 0 8 -7 14 -15
14 -8 0 -15 -6 -15 -13z"/>
<path d="M256 1372 c-6 -9 29 -42 44 -42 6 0 10 5 10 10 0 6 -7 10 -15 10 -8
0 -15 7 -15 15 0 16 -15 20 -24 7z"/>
<path d="M575 1358 c-4 -11 -2 -25 4 -31 6 -6 11 -20 11 -31 0 -14 3 -17 11
-9 8 8 8 17 0 31 -7 14 -8 23 -1 27 14 9 12 22 -4 28 -9 4 -17 -2 -21 -15z"/>
<path d="M1928 1353 c-24 -26 -12 -31 18 -8 10 8 27 15 37 15 9 0 17 4 17 9 0
17 -51 6 -72 -16z"/>
<path d="M4 1356 c-3 -8 -4 -25 -2 -38 4 -22 5 -22 12 -3 4 11 12 28 17 38 7
13 5 17 -6 17 -9 0 -18 -6 -21 -14z"/>
<path d="M778 1353 c-31 -3 -38 -8 -38 -26 0 -20 0 -20 14 -1 12 15 17 17 27
7 15 -15 69 -17 69 -3 0 6 -8 10 -17 10 -15 0 -16 2 -3 10 13 9 13 10 0 8 -8
-1 -32 -3 -52 -5z"/>
<path d="M2232 1184 c-1 -159 -2 -168 -24 -192 -16 -17 -19 -26 -11 -29 10 -3
10 -10 2 -25 -6 -11 -8 -27 -5 -35 4 -9 1 -22 -5 -30 -9 -10 -9 -17 -2 -24 8
-8 11 -6 10 7 -1 13 4 18 16 16 11 -2 17 4 17 18 0 11 6 20 14 20 8 0 18 10
22 22 l6 21 12 -21 c9 -17 11 -12 13 39 1 33 7 68 13 77 7 13 8 10 4 -14 -4
-20 -1 -34 7 -39 8 -5 10 -4 5 3 -4 7 -2 12 3 12 6 0 11 -8 12 -17 0 -15 2
-14 11 4 8 17 6 31 -11 65 -11 24 -21 39 -22 33 -1 -11 -27 80 -36 128 -3 15
-10 27 -15 27 -5 0 -7 -13 -3 -29 3 -16 5 -51 4 -77 0 -27 -2 -76 -3 -109 0
-38 -6 -64 -15 -71 -8 -6 -11 -16 -8 -21 4 -6 -2 -13 -13 -16 -14 -3 -18 -1
-13 6 13 20 14 49 2 41 -6 -3 -4 4 5 18 20 31 36 183 22 224 -4 14 -1 27 8 36
9 10 11 20 5 29 -5 8 -9 26 -9 42 0 15 -4 27 -9 27 -4 0 -9 -75 -9 -166z"/>
<path d="M2456 1334 c-4 -11 -13 -14 -27 -11 -12 3 -32 1 -46 -4 -17 -6 -30
-6 -39 2 -10 8 -17 7 -27 -3 -15 -14 -8 -58 14 -84 9 -11 9 -14 -1 -14 -9 0
-9 -4 -2 -12 5 -7 9 -25 7 -41 -4 -29 15 -87 27 -87 11 0 10 12 -7 59 -8 22
-11 41 -7 41 9 0 72 -72 72 -82 0 -5 8 -8 18 -7 10 0 12 3 5 6 -7 2 -13 10
-13 16 0 14 95 -85 104 -109 4 -9 9 -14 13 -11 8 9 -18 68 -28 62 -4 -3 -21
14 -38 39 -17 24 -53 60 -80 80 -33 25 -54 49 -61 72 -15 44 -10 49 32 36 18
-6 57 -13 86 -16 48 -6 52 -5 52 14 0 11 7 20 15 20 9 0 15 -10 15 -26 0 -22
4 -25 31 -22 26 2 32 8 35 30 2 23 -2 27 -34 33 -20 3 -45 8 -54 11 -13 4 -18
0 -18 -16 0 -12 -4 -19 -10 -15 -5 3 -7 12 -4 19 3 7 -2 18 -9 25 -12 9 -16 8
-21 -5z"/>
<path d="M130 1333 c0 -7 -7 -10 -15 -7 -8 4 -15 1 -15 -5 0 -6 11 -16 25 -21
14 -5 25 -12 25 -15 0 -4 -4 -3 -10 0 -14 9 -12 -21 3 -45 10 -17 9 -22 -3
-30 -8 -5 -11 -12 -7 -16 4 -4 17 4 29 17 13 14 26 24 30 24 3 0 10 4 15 9 4
5 -4 7 -19 4 -28 -5 -40 13 -18 27 6 3 10 15 10 25 0 10 6 21 13 24 6 3 -1 3
-17 -1 -18 -4 -31 -1 -37 8 -6 10 -9 10 -9 2z"/>
<path d="M460 1305 c-7 -8 -20 -15 -29 -15 -10 0 -17 -9 -18 -20 -2 -24 10
-26 31 -4 9 9 24 13 35 9 22 -7 34 6 25 29 -8 20 -28 21 -44 1z"/>
<path d="M2634 1296 c-8 -21 -1 -59 12 -63 6 -2 14 5 17 17 7 28 27 25 27 -4
0 -14 5 -28 11 -32 15 -9 30 17 19 31 -5 6 -7 21 -3 33 4 17 2 21 -9 17 -8 -3
-27 -1 -42 4 -21 9 -28 8 -32 -3z"/>
<path d="M12 1274 c-7 -8 -11 -22 -9 -32 4 -14 6 -13 12 6 4 12 11 22 16 22 5
0 9 5 9 10 0 14 -13 12 -28 -6z"/>
<path d="M2206 1282 c-8 -14 -3 -151 6 -146 8 5 10 154 2 154 -1 0 -5 -4 -8
-8z"/>
<path d="M53 1245 c-13 -14 -8 -45 7 -45 4 0 14 8 23 18 13 14 14 21 5 30 -15
15 -20 15 -35 -3z"/>
<path d="M511 1248 c1 -7 -4 -26 -11 -43 -12 -27 -14 -28 -17 -8 -4 18 -11 21
-51 21 l-47 0 40 -20 c22 -11 50 -29 62 -40 21 -20 63 -18 63 3 0 6 -9 7 -20
4 -16 -5 -20 -2 -20 19 0 14 7 29 15 34 10 5 13 15 9 25 -7 20 -26 23 -23 5z"/>
<path d="M1256 1245 c-23 -18 -53 -20 -58 -4 -2 6 -14 2 -30 -10 -33 -26 -41
-26 -33 -1 4 11 2 20 -4 20 -6 0 -11 -5 -11 -11 0 -8 -4 -8 -14 0 -8 7 -16 8
-18 3 -1 -5 -22 -13 -45 -17 -36 -6 -43 -4 -43 9 0 28 -28 17 -35 -14 -9 -42
4 -58 25 -30 16 21 21 22 58 13 35 -9 40 -8 35 5 -10 24 20 8 34 -19 7 -13 13
-21 13 -16 0 4 11 0 24 -8 16 -11 26 -13 31 -6 11 18 35 12 60 -15 16 -17 25
-22 25 -13 0 13 21 25 74 43 19 6 18 7 -3 23 -14 9 -26 12 -30 6 -14 -22 -49
-32 -79 -23 -17 4 -40 6 -52 3 -11 -3 -20 0 -20 6 0 13 40 24 97 25 44 1 55 9
27 20 -8 3 -12 10 -9 16 8 13 4 12 -19 -5z"/>
<path d="M2756 1235 c-3 -9 0 -18 7 -20 28 -9 117 -14 122 -6 7 12 -20 21 -66
21 -21 0 -39 5 -39 10 0 16 -17 12 -24 -5z"/>
<path d="M336 1214 c4 -17 2 -29 -7 -35 -10 -6 -8 -9 10 -9 19 0 22 4 17 23
-3 12 -6 28 -6 35 0 6 -5 12 -10 12 -6 0 -8 -11 -4 -26z"/>
<path d="M832 1230 c13 -8 15 -19 11 -45 -4 -24 -2 -35 7 -35 7 0 10 7 6 15
-3 10 1 18 11 22 20 8 56 43 50 49 -9 9 -37 -9 -37 -24 0 -13 -4 -11 -16 6 -8
12 -23 22 -32 22 -16 -1 -16 -1 0 -10z"/>
<path d="M2125 1229 c-6 -8 -4 -10 5 -4 10 6 12 3 8 -13 -4 -12 -2 -20 3 -16
5 3 9 0 9 -5 0 -6 -5 -11 -11 -11 -8 0 -7 -5 1 -15 7 -9 10 -18 6 -22 -3 -3
-6 -1 -6 5 0 7 -4 12 -10 12 -5 0 -10 -12 -10 -27 0 -23 2 -25 11 -13 9 12 10
12 5 -3 -3 -10 -3 -30 0 -44 7 -25 7 -25 22 -7 14 18 14 18 9 -6 -2 -14 -8
-34 -12 -45 -7 -18 -6 -18 8 -5 18 17 34 120 18 120 -5 0 -12 -6 -15 -12 -3
-7 -5 -2 -5 12 1 14 0 27 -1 30 -1 3 -3 18 -5 34 -5 35 -20 53 -30 35z"/>
<path d="M598 1219 c-19 -11 -25 -39 -8 -39 6 0 13 7 16 15 8 21 21 19 27 -5
3 -11 10 -20 17 -20 14 0 3 41 -14 52 -14 10 -17 9 -38 -3z"/>
<path d="M758 1200 c-12 -35 -68 -64 -108 -56 -14 3 -19 3 -12 0 6 -3 12 -13
12 -21 0 -13 3 -13 16 -2 13 10 17 10 24 -1 6 -10 11 -8 21 9 8 11 22 21 31
21 26 0 66 21 73 39 6 15 -18 41 -37 41 -5 0 -14 -14 -20 -30z"/>
<path d="M2916 1211 c5 -5 27 -12 48 -16 36 -6 38 -5 27 9 -8 9 -29 16 -49 16
-21 0 -32 -4 -26 -9z"/>
<path d="M286 1193 c-25 -7 -44 -25 -39 -39 6 -17 51 6 57 28 2 10 3 17 3 17
-1 -1 -11 -4 -21 -6z"/>
<path d="M1476 1185 c-17 -13 -17 -15 -3 -15 10 0 14 -5 11 -15 -4 -8 -1 -15
5 -15 6 0 11 11 11 24 0 15 7 26 18 29 14 4 14 5 -3 6 -11 0 -29 -6 -39 -14z"/>
<path d="M36 1183 c-3 -4 -6 -15 -6 -25 0 -16 3 -17 20 -8 11 6 20 15 20 19 0
11 -26 22 -34 14z"/>
<path d="M1377 1184 c-3 -3 -3 -12 0 -20 7 -18 53 -18 53 0 0 19 -39 34 -53
20z"/>
<path d="M2460 1160 c0 -5 11 -12 24 -16 14 -3 27 -12 30 -20 3 -8 12 -11 21
-8 8 4 23 0 32 -7 15 -13 16 -11 9 14 -7 29 10 37 32 15 9 -9 12 -8 12 5 0 9
-3 17 -7 18 -50 7 -73 5 -73 -7 0 -19 -26 -18 -34 1 -6 16 -46 21 -46 5z"/>
<path d="M579 1143 c-1 -10 -3 -28 -4 -40 -3 -26 16 -30 35 -8 10 12 9 20 -4
40 -19 30 -26 31 -27 8z"/>
<path d="M2642 1118 c-15 -48 -8 -63 18 -40 23 19 26 38 8 45 -7 3 -4 6 8 6
11 1 25 6 31 12 13 13 27 -5 28 -36 0 -14 7 -20 25 -21 14 -1 30 -3 35 -4 6
-2 42 -5 80 -6 39 -2 81 -5 95 -6 19 -2 26 2 28 20 2 12 -1 22 -7 22 -6 0 -11
-4 -11 -10 0 -5 -17 -10 -37 -10 l-38 1 25 15 c21 13 22 14 4 9 -15 -4 -24 0
-28 10 -4 13 -13 15 -36 10 -23 -5 -30 -3 -30 9 0 18 -16 21 -25 6 -4 -6 -15
-8 -25 -5 -10 3 -44 7 -77 9 l-59 4 -12 -40z m143 2 c4 -6 12 -10 18 -9 28 3
58 -2 53 -9 -5 -9 -52 -8 -92 2 -14 4 -22 11 -19 16 8 13 32 13 40 0z"/>
<path d="M76 1128 c-3 -7 -4 -20 -4 -28 0 -8 -3 -23 -7 -32 -5 -13 -2 -15 14
-11 12 3 24 9 27 14 3 5 -2 6 -10 3 -9 -3 -16 -1 -16 5 0 6 7 11 15 11 21 0
19 18 -2 23 -17 4 -17 5 0 6 9 0 17 6 17 11 0 14 -30 12 -34 -2z"/>
<path d="M1427 1120 c-3 -12 -14 -20 -26 -20 -12 0 -21 -4 -21 -10 0 -5 5 -10
10 -10 6 0 10 -5 10 -11 0 -8 -15 -10 -45 -7 -25 3 -45 2 -45 -3 0 -5 11 -9
23 -9 29 0 37 -7 30 -26 -3 -9 -13 -12 -27 -9 -15 5 -17 4 -7 -3 7 -5 10 -15
7 -21 -4 -6 -3 -11 2 -11 14 0 50 38 57 60 3 11 10 20 15 20 9 0 40 56 40 72
0 16 -18 7 -23 -12z"/>
<path d="M724 1097 c5 -21 4 -27 -5 -21 -7 4 -24 8 -38 10 -23 2 -24 1 -9 -10
30 -22 6 -39 -38 -27 -31 9 -41 8 -49 -2 -5 -8 -17 -16 -24 -19 -12 -3 -12 -6
2 -11 9 -3 17 -2 17 4 0 6 5 7 10 4 6 -3 10 -18 10 -32 0 -38 11 -21 12 17 1
28 3 31 13 16 18 -23 75 -11 75 16 0 15 5 19 20 15 27 -7 38 30 15 52 -16 15
-17 14 -11 -12z"/>
<path d="M2099 1097 c14 -36 14 -40 0 -31 -11 6 -8 -10 9 -54 4 -12 1 -12 -16
-1 -11 7 -18 17 -16 23 2 6 -1 27 -6 46 -7 29 -8 24 -5 -30 1 -36 -1 -72 -6
-81 -7 -13 -3 -16 19 -16 15 0 21 2 15 4 -7 3 -13 10 -13 15 0 6 3 9 6 5 7 -7
26 9 41 37 11 20 -4 77 -26 99 -10 9 -10 6 -2 -16z"/>
<path d="M210 1098 c0 -18 -33 -37 -66 -38 -17 0 -37 -7 -44 -15 -9 -11 -9
-15 -1 -15 7 0 11 -7 9 -16 -2 -10 3 -19 11 -22 10 -3 12 0 7 13 -3 10 -1 24
5 32 10 11 15 11 30 -3 17 -15 19 -15 19 -1 0 22 16 30 36 19 19 -11 54 -4 54
9 0 5 -3 8 -7 8 -21 -3 -32 2 -27 15 3 7 -2 16 -10 19 -9 4 -16 1 -16 -5z"/>
<path d="M903 1095 c0 -8 8 -15 18 -15 10 0 24 -12 31 -27 9 -19 22 -29 41
-31 36 -4 35 15 -2 23 -20 4 -28 11 -24 21 3 9 -1 14 -11 14 -9 0 -19 7 -22
15 -4 8 -12 15 -18 15 -7 0 -13 -7 -13 -15z"/>
<path d="M387 1080 c-4 -14 -10 -18 -23 -13 -14 5 -16 3 -11 -11 4 -10 7 -22
7 -27 0 -5 7 -9 15 -9 8 0 15 -5 15 -11 0 -22 25 -1 27 22 3 55 -19 92 -30 49z"/>
<path d="M510 1090 c0 -5 -9 -10 -19 -10 -11 0 -27 -3 -35 -6 -15 -6 -15 -8 1
-20 24 -18 44 -18 37 1 -4 10 0 15 11 15 12 0 16 -6 13 -18 -4 -15 -1 -18 18
-14 15 3 21 9 17 16 -4 6 -6 19 -5 29 2 11 -3 17 -17 17 -12 0 -21 -4 -21 -10z"/>
<path d="M1134 1088 c-7 -12 -7 -12 38 -25 39 -11 58 -3 35 15 -18 14 -67 21
-73 10z"/>
<path d="M1440 1077 c0 -22 11 -26 36 -15 24 11 33 28 14 28 -5 0 -10 -5 -10
-12 0 -9 -3 -9 -12 0 -16 16 -28 15 -28 -1z"/>
<path d="M4 1030 c0 -34 4 -51 14 -55 10 -3 12 0 8 10 -3 8 -1 26 4 39 7 19 5
26 -6 30 -8 3 -12 10 -9 16 3 5 3 10 -2 10 -4 0 -8 -22 -9 -50z"/>
<path d="M2377 1073 c-3 -5 -3 -14 1 -19 11 -16 41 -24 47 -14 4 6 -1 10 -9
10 -8 0 -19 7 -24 16 -5 9 -12 12 -15 7z"/>
<path d="M2440 1041 c0 -6 -11 -13 -25 -17 -21 -5 -25 -12 -25 -41 0 -39 21
-42 27 -4 2 12 10 29 18 38 14 13 18 14 33 1 31 -27 48 -32 27 -9 -25 28 -55
46 -55 32z"/>
<path d="M2615 1039 c-10 -16 0 -21 29 -13 14 3 23 10 20 15 -7 12 -41 11 -49
-2z"/>
<path d="M2700 1026 c0 -9 -5 -16 -11 -16 -5 0 -7 -5 -3 -11 5 -8 8 -8 14 0 8
14 79 9 88 -6 4 -5 17 -16 30 -22 20 -11 27 -10 44 6 11 10 32 23 46 30 25 10
25 11 5 12 -12 1 -25 -4 -28 -10 -4 -6 -14 -8 -22 -5 -9 4 -21 1 -29 -4 -9 -9
-18 -6 -33 9 -12 12 -29 21 -38 21 -10 0 -28 3 -40 6 -17 5 -23 2 -23 -10z"/>
<path d="M436 1016 c7 -18 5 -17 56 -20 36 -1 67 -16 35 -16 -19 0 -21 -8 -7
-30 7 -12 13 -10 34 13 15 17 20 27 12 27 -8 0 -19 7 -26 15 -6 8 -24 14 -38
13 -15 0 -37 3 -50 7 -18 6 -21 4 -16 -9z"/>
<path d="M720 1011 c0 -10 7 -22 15 -25 20 -7 32 23 14 35 -21 13 -29 11 -29
-10z"/>
<path d="M1250 998 c0 -20 -4 -26 -15 -22 -8 4 -15 1 -15 -5 0 -14 67 -8 83 8
8 8 6 11 -7 11 -11 0 -25 8 -32 18 -12 15 -13 15 -14 -10z"/>
<path d="M280 997 c-23 -7 -29 -12 -18 -14 9 -2 19 -12 21 -21 4 -14 6 -13 12
6 10 30 29 28 23 -2 -4 -21 -3 -23 13 -13 13 8 15 15 8 24 -6 7 -8 17 -4 23 8
12 -9 12 -55 -3z"/>
<path d="M1060 1001 c0 -5 -3 -16 -6 -24 -4 -12 3 -15 30 -15 19 0 40 -3 46
-7 15 -10 -29 -41 -52 -37 -10 2 -18 -2 -18 -7 0 -6 7 -11 16 -11 11 0 14 -6
10 -17 -3 -10 4 -6 17 10 12 15 28 27 34 27 6 0 16 7 23 15 7 9 18 14 25 12
13 -6 18 30 4 38 -5 4 -12 0 -15 -9 -7 -19 -48 -12 -74 14 -21 21 -40 26 -40
11z"/>
<path d="M2551 989 c-8 -13 -9 -25 -3 -31 13 -13 35 18 25 36 -7 13 -10 12
-22 -5z"/>
<path d="M2908 970 c-15 -13 -28 -35 -28 -47 0 -28 20 -30 27 -3 3 11 16 23
29 26 13 3 24 10 24 15 0 5 9 9 20 9 11 0 20 6 20 13 0 22 -62 14 -92 -13z"/>
<path d="M193 971 l-23 -19 40 -43 c27 -30 39 -39 40 -27 0 12 8 16 28 16 26
-1 28 -3 18 -24 -7 -15 -20 -24 -33 -24 -29 0 -40 -20 -20 -35 10 -7 17 -17
17 -24 0 -17 -28 -13 -39 7 -6 9 -11 11 -11 5 0 -18 -20 -16 -20 2 0 8 8 15
18 16 10 0 12 3 5 6 -8 3 -11 14 -7 31 l6 27 -17 -23 c-9 -12 -14 -26 -11 -31
3 -5 -4 -11 -16 -14 -35 -10 -52 27 -19 38 19 6 38 41 28 51 -2 3 -12 -3 -22
-12 -17 -17 -18 -17 -31 1 -12 16 -14 17 -20 2 -3 -10 -12 -17 -20 -17 -8 0
-14 -5 -14 -11 0 -7 -13 -10 -33 -7 -33 4 -33 3 -20 -22 7 -14 13 -30 13 -37
0 -6 9 -9 20 -6 16 4 18 8 9 19 -16 19 -11 22 34 16 22 -2 37 -10 37 -18 0 -8
-6 -11 -15 -8 -9 4 -15 0 -15 -10 0 -9 7 -16 15 -16 12 0 14 -7 9 -27 -9 -36
-13 -40 -24 -23 -9 15 -11 13 -14 -12 -1 -7 -10 -12 -21 -11 -11 1 -14 0 -8
-3 20 -9 4 -55 -29 -88 -26 -26 -28 -30 -14 -44 8 -9 34 -17 56 -18 33 -2 42
2 51 19 6 12 21 30 33 39 17 14 19 19 9 29 -7 7 -13 17 -13 22 0 4 11 -5 25
-20 34 -39 31 -11 -5 57 -34 62 -39 100 -13 100 9 0 14 -3 10 -6 -3 -3 2 -14
11 -25 9 -11 17 -34 17 -52 0 -28 3 -32 25 -29 36 5 38 11 13 32 -31 25 -30
44 2 36 21 -5 28 -1 45 26 11 18 20 41 20 50 0 9 9 19 19 23 11 3 22 12 25 21
5 12 9 12 27 2 33 -19 62 -49 55 -56 -4 -3 -24 -1 -45 4 -35 10 -39 8 -54 -15
-9 -14 -22 -34 -29 -43 -19 -27 -1 -34 20 -8 10 13 24 20 30 17 16 -11 -16
-70 -34 -63 -21 8 -31 -25 -11 -36 10 -5 17 -16 17 -23 0 -8 5 -15 10 -15 13
0 13 13 -1 27 -8 8 -5 17 10 32 12 12 20 26 18 33 -1 6 6 14 17 16 16 3 18 0
12 -22 -4 -15 -2 -26 4 -26 5 0 10 5 10 10 0 6 7 10 15 10 8 0 15 7 15 15 0 9
-7 15 -17 13 -10 -2 -19 4 -21 15 -2 11 3 17 16 17 13 0 24 11 31 31 14 40 14
39 -6 40 -10 0 -13 3 -8 5 16 6 6 74 -10 74 -8 0 -20 -7 -29 -15 -17 -17 -36
-20 -36 -5 0 6 -15 8 -38 4 -36 -6 -40 -4 -65 35 -15 23 -28 41 -30 41 -1 -1
-12 -9 -24 -19z m-57 -294 c-3 -12 -1 -26 3 -31 6 -7 -7 -21 -35 -38 -41 -25
-44 -26 -44 -8 0 14 7 20 22 20 12 0 18 3 15 7 -4 3 -2 12 4 19 7 9 7 19 0 32
-13 24 -6 31 20 25 15 -4 19 -11 15 -26z"/>
<path d="M426 975 c-3 -8 -17 -15 -31 -15 -14 0 -25 -4 -25 -8 0 -4 16 -6 35
-4 27 3 35 1 35 -12 0 -9 7 -16 15 -16 11 0 14 -12 14 -50 -2 -55 12 -80 44
-80 19 0 20 1 2 20 -16 17 -16 20 -2 20 26 0 47 -11 47 -26 0 -8 5 -14 10 -14
6 0 10 -6 10 -13 0 -8 12 -24 28 -38 15 -13 21 -17 15 -9 -26 29 -11 40 22 16
16 -12 17 -16 6 -30 -10 -12 -10 -16 -1 -16 7 0 10 -7 6 -16 -5 -12 -2 -15 10
-10 8 3 18 6 20 6 3 0 0 9 -7 21 -8 15 -8 24 0 32 12 12 -63 72 -79 62 -5 -3
-10 1 -10 9 0 8 -9 20 -20 26 -24 13 -27 40 -4 40 8 0 13 4 9 9 -3 5 -18 8
-33 6 -15 -2 -30 -4 -34 -4 -4 -1 -5 -8 -2 -16 4 -8 1 -15 -5 -15 -15 0 -9 43
8 63 15 19 7 37 -18 37 -9 0 -27 9 -38 20 -18 16 -22 17 -27 5z"/>
<path d="M2356 971 c-6 -18 -10 -21 -17 -10 -8 12 -11 12 -19 -1 -15 -23 -12
-38 10 -45 11 -3 20 -11 20 -16 0 -5 5 -9 10 -9 6 0 10 7 10 15 0 8 -6 15 -12
15 -10 0 -10 2 0 9 8 5 12 20 10 37 -3 29 -4 29 -12 5z"/>
<path d="M2146 973 c-4 -5 -12 -8 -17 -8 -5 0 -9 -4 -10 -10 0 -5 -9 -14 -19
-20 -15 -9 -16 -12 -4 -23 12 -11 14 -10 14 5 1 17 1 17 11 0 10 -18 13 -17
39 8 16 15 26 34 23 41 -6 15 -25 19 -37 7z"/>
<path d="M2620 963 c0 -12 12 -26 35 -43 16 -11 17 -11 8 0 -7 8 -13 22 -13
32 0 10 -7 18 -15 18 -8 0 -15 -3 -15 -7z"/>
<path d="M0 933 c0 -28 15 -53 32 -53 5 0 1 11 -8 25 -8 13 -13 29 -10 34 4 5
2 12 -4 16 -6 4 -10 -6 -10 -22z"/>
<path d="M680 921 c0 -31 4 -41 16 -41 10 0 13 -6 10 -18 -4 -10 1 -27 10 -38
12 -14 14 -15 11 -3 -3 9 -1 21 4 26 6 6 1 18 -12 32 -12 13 -19 30 -16 41 3
11 -1 24 -9 31 -12 9 -14 4 -14 -30z"/>
<path d="M2685 950 c-3 -5 5 -15 19 -22 14 -6 26 -17 26 -23 0 -16 59 -14 85
2 30 19 0 35 -52 28 -34 -4 -43 -2 -43 10 0 17 -25 21 -35 5z"/>
<path d="M730 933 c-13 -15 -12 -16 3 -10 15 6 17 3 12 -13 -8 -25 0 -25 26
-1 12 11 18 24 14 30 -9 16 -38 13 -55 -6z"/>
<path d="M599 938 c0 -2 -3 -24 -5 -50 -5 -43 -4 -46 16 -41 16 4 18 8 9 19
-7 8 -7 14 -1 14 5 0 16 -7 23 -17 11 -13 11 -17 2 -20 -18 -6 -16 -23 1 -23
23 0 26 13 12 53 -9 28 -15 34 -24 25 -6 -6 -15 -9 -19 -5 -4 4 -1 13 5 19 16
16 15 28 -3 28 -8 0 -15 -1 -16 -2z"/>
<path d="M2420 925 c0 -8 -4 -15 -9 -15 -5 0 -18 -16 -30 -35 -25 -42 -21 -44
18 -6 31 30 49 71 32 71 -6 0 -11 -7 -11 -15z"/>
<path d="M1246 922 c-4 -7 -18 -12 -32 -12 -14 0 -22 -4 -19 -10 3 -5 14 -10
23 -10 10 0 26 -9 35 -21 12 -14 22 -17 30 -11 7 5 21 6 32 1 17 -6 17 -8 3
-8 -10 -1 -18 -6 -18 -12 0 -6 9 -8 23 -3 29 9 29 8 21 38 -5 21 -9 24 -20 15
-18 -15 -54 -2 -63 24 -5 13 -10 17 -15 9z"/>
<path d="M2477 913 c-29 -48 -47 -86 -43 -90 4 -5 46 33 46 42 0 3 0 6 1 8 3
8 5 47 3 47 -2 0 -5 -3 -7 -7z"/>
<path d="M2580 911 c0 -6 5 -11 11 -11 5 0 7 -4 4 -10 -3 -5 -1 -10 4 -10 6 0
11 -7 11 -15 0 -8 5 -15 11 -15 5 0 8 -4 5 -8 -2 -4 4 -13 15 -20 20 -13 26
-3 9 14 -6 6 -19 26 -29 44 -18 34 -41 51 -41 31z"/>
<path d="M802 863 c4 -41 32 -58 40 -25 3 11 -4 25 -19 36 l-24 18 3 -29z"/>
<path d="M868 883 c6 -2 12 -14 12 -24 0 -29 18 -59 36 -59 12 0 13 4 2 23 -7
12 -11 26 -9 32 3 11 -28 35 -43 34 -6 0 -5 -3 2 -6z"/>
<path d="M963 858 c4 -15 1 -18 -16 -13 -21 6 -22 6 -3 -9 26 -21 33 -20 42 6
6 19 8 20 18 6 10 -14 14 -14 31 -2 24 18 16 25 -35 28 -37 3 -41 1 -37 -16z"/>
<path d="M1194 867 c1 -7 7 -20 13 -31 12 -21 26 -7 17 17 -7 19 -33 30 -30
14z"/>
<path d="M2849 853 c-13 -15 -12 -15 8 -5 29 16 43 15 43 -3 0 -8 9 -15 20
-15 18 0 19 3 10 20 -13 25 -62 27 -81 3z"/>
<path d="M2747 854 c-3 -4 1 -13 10 -22 14 -14 17 -14 28 1 6 9 15 14 18 10 4
-3 7 -1 7 5 0 14 -10 15 -30 2 -9 -5 -17 -5 -20 1 -4 5 -9 6 -13 3z"/>
<path d="M1056 834 c-8 -22 -8 -24 7 -24 7 0 18 9 25 20 11 17 10 20 -7 20
-10 0 -22 -7 -25 -16z"/>
<path d="M1103 818 c-4 -7 -8 -27 -10 -44 l-2 -31 34 16 c23 12 30 19 23 28
-5 7 -13 12 -16 11 -19 -2 -23 4 -12 17 8 9 9 15 2 15 -6 0 -14 -6 -19 -12z"/>
<path d="M1144 823 c4 -5 13 -8 19 -8 7 0 18 -12 25 -27 7 -16 18 -28 24 -28
6 0 17 -8 24 -17 12 -16 13 -16 8 4 -4 12 -15 29 -25 39 -10 9 -19 23 -19 31
0 8 -12 13 -32 13 -17 0 -28 -3 -24 -7z"/>
<path d="M2558 802 c-2 -15 0 -42 3 -59 4 -18 3 -33 -2 -33 -9 0 -7 -10 7 -45
5 -11 9 -31 10 -45 3 -46 4 -50 14 -50 6 0 7 28 3 73 -4 39 -7 95 -7 124 0 56
-22 84 -28 35z"/>
<path d="M1269 807 c5 -7 10 -19 12 -28 4 -14 8 -14 38 -2 40 17 38 19 -17 31
-32 8 -40 7 -33 -1z"/>
<path d="M2834 809 c-6 -10 33 -22 46 -14 6 4 8 10 5 15 -6 10 -44 9 -51 -1z"/>
<path d="M2927 793 c11 -32 15 -34 29 -16 19 26 17 33 -11 33 -19 0 -23 -4
-18 -17z"/>
<path d="M800 787 c0 -25 11 -47 21 -41 5 3 9 0 9 -5 0 -15 -37 -14 -43 2 -3
7 -6 5 -6 -6 -1 -25 20 -30 60 -13 l34 15 -25 9 c-14 5 -25 17 -25 27 0 10 -6
20 -12 22 -7 3 -13 -2 -13 -10z"/>
<path d="M993 793 c-22 -8 -14 -21 17 -25 19 -3 35 1 43 10 10 13 9 15 -10 10
-13 -4 -23 -2 -23 3 0 10 -8 10 -27 2z"/>
<path d="M3 750 c1 -22 5 -39 10 -37 5 1 8 6 8 10 -1 4 -1 21 -1 37 0 17 -4
30 -9 30 -6 0 -9 -18 -8 -40z"/>
<path d="M443 752 c3 -16 0 -33 -9 -43 -12 -14 -10 -17 21 -26 35 -11 48 -1
21 14 -12 7 -12 11 -1 27 12 16 17 17 30 6 8 -7 19 -9 23 -5 4 4 2 10 -4 12
-6 2 -28 12 -49 23 l-37 19 5 -27z"/>
<path d="M910 763 c0 -7 -5 -13 -12 -13 -6 0 -4 -7 5 -18 21 -23 22 -36 2 -28
-8 3 -15 1 -15 -4 0 -6 10 -10 23 -10 21 0 23 4 19 37 -4 30 -2 35 11 30 11
-4 14 -2 11 8 -7 17 -44 15 -44 -2z"/>
<path d="M2440 771 c0 -5 -3 -16 -6 -25 -10 -25 33 -15 45 11 9 21 8 23 -14
23 -14 0 -25 -4 -25 -9z"/>
<path d="M2610 771 c0 -15 18 -22 25 -11 5 8 11 7 21 -1 12 -10 12 -13 -2 -24
-19 -13 -11 -35 12 -35 8 0 14 -4 14 -10 0 -5 7 -10 15 -10 8 0 15 9 15 20 0
11 -7 20 -15 20 -18 0 -20 16 -4 26 7 4 -1 12 -21 20 -38 16 -60 18 -60 5z"/>
<path d="M2726 755 c-6 -24 17 -75 34 -75 17 0 21 -35 5 -46 -10 -7 -12 -15
-6 -18 5 -4 12 -2 16 4 4 7 12 7 24 0 15 -7 18 -6 17 8 -1 11 5 16 16 14 9 -1
22 7 28 19 9 16 18 20 39 16 16 -3 32 -2 37 3 5 4 20 10 34 12 19 2 26 10 28
31 2 15 -1 27 -7 27 -6 0 -11 -4 -11 -10 0 -5 -7 -10 -16 -10 -8 0 -12 -4 -9
-10 10 -17 -18 -11 -54 11 -36 22 -35 23 -15 -27 3 -6 -5 -10 -18 -10 -13 1
-22 -4 -20 -11 1 -7 -2 -13 -8 -13 -13 0 -13 27 0 35 5 3 7 12 4 20 -4 8 -10
13 -14 10 -5 -3 -11 -1 -15 5 -3 5 -16 10 -27 10 -12 0 -29 7 -39 15 -15 15
-17 14 -23 -10z"/>
<path d="M990 735 c0 -22 -2 -29 -15 -42 -18 -18 -119 -45 -123 -33 -2 5 -10
10 -18 10 -9 0 -12 5 -8 12 4 7 3 8 -4 4 -7 -4 -12 -14 -12 -21 0 -8 -11 -17
-24 -21 -21 -5 -35 -25 -32 -46 1 -4 -8 -14 -19 -21 -16 -13 -17 -17 -6 -31
12 -14 10 -16 -18 -16 -19 0 -30 -4 -26 -10 3 -5 15 -10 25 -10 10 0 20 -5 22
-12 9 -27 26 6 26 51 0 60 6 71 34 63 14 -3 19 -2 14 6 -5 9 6 12 38 12 26 0
46 5 49 13 3 9 9 9 27 -1 12 -8 19 -9 15 -3 -3 6 1 12 9 12 9 1 22 2 29 3 6 0
12 8 12 16 0 15 45 26 133 34 17 2 31 7 30 12 -3 11 -69 13 -83 4 -5 -4 -22
-10 -38 -12 -22 -4 -25 -3 -16 8 11 14 5 34 -12 34 -5 0 -9 -7 -9 -15z"/>
<path d="M2492 662 c-18 -37 -39 -78 -47 -92 -18 -31 -11 -38 15 -15 23 21 41
56 63 123 23 66 5 57 -31 -16z"/>
<path d="M710 701 c0 -10 7 -22 16 -25 20 -8 10 -20 -16 -21 -11 0 -20 -3 -20
-7 0 -32 1 -38 10 -38 6 0 10 7 10 16 0 11 6 14 20 9 14 -4 20 -2 20 8 0 9 6
18 13 21 8 3 7 8 -5 16 -10 6 -18 18 -18 25 0 8 -7 15 -15 15 -8 0 -15 -9 -15
-19z"/>
<path d="M2608 615 c3 -66 10 -116 17 -125 7 -8 12 -26 10 -40 -1 -14 5 -32
13 -40 14 -13 14 -15 -2 -18 -24 -5 -16 -38 9 -35 16 2 36 -23 93 -111 40 -63
89 -145 109 -183 36 -69 39 -57 6 32 -26 72 -101 204 -139 247 -39 44 -59 78
-45 78 5 0 13 -4 16 -10 3 -6 14 -9 23 -9 16 1 16 2 0 6 -13 3 -15 12 -11 41
7 46 7 46 32 32 25 -13 29 3 6 26 -8 9 -15 11 -15 6 0 -5 -12 -13 -27 -17 -19
-4 -23 -9 -14 -14 10 -7 11 -13 2 -27 -6 -11 -11 -15 -11 -10 0 5 -7 3 -15 -4
-9 -8 -15 -8 -15 -2 0 6 5 12 11 14 15 5 -10 48 -28 48 -8 0 -12 25 -12 78 0
42 -5 93 -10 112 -6 24 -7 0 -3 -75z"/>
<path d="M525 700 c-19 -7 -19 -7 0 -18 17 -10 18 -13 5 -22 -12 -9 -10 -11
10 -9 39 3 62 -10 55 -32 -11 -33 11 -20 23 14 7 18 12 36 12 39 0 8 -21 5
-37 -5 -16 -10 -32 -1 -41 23 -5 12 -13 15 -27 10z"/>
<path d="M30 692 c0 -7 -7 -12 -15 -12 -10 0 -15 -10 -15 -27 l0 -28 21 34
c11 18 18 36 15 39 -4 3 -6 0 -6 -6z"/>
<path d="M390 675 c0 -15 16 -20 53 -17 10 1 20 -5 23 -13 7 -18 24 -20 24 -2
0 11 -68 47 -90 47 -6 0 -10 -7 -10 -15z"/>
<path d="M2067 683 c-3 -5 28 -8 69 -9 41 0 74 3 74 8 0 10 -137 11 -143 1z"/>
<path d="M1347 637 c-6 -16 0 -26 27 -47 19 -15 19 -14 1 20 -22 44 -22 43
-28 27z"/>
<path d="M2887 613 c-12 -21 -21 -41 -19 -45 1 -5 -2 -8 -8 -8 -5 0 -10 -8
-10 -18 0 -10 -5 -23 -12 -30 -8 -8 -8 -12 -1 -12 6 0 16 12 22 28 19 45 42
82 50 82 5 0 11 9 14 20 8 33 -12 23 -36 -17z"/>
<path d="M2131 636 c9 -9 89 -13 89 -5 0 5 -21 9 -47 9 -25 0 -44 -2 -42 -4z"/>
<path d="M257 605 c-9 -7 -17 -14 -17 -17 0 -10 80 -61 86 -55 13 12 -6 37
-28 37 -17 0 -19 3 -10 12 7 7 12 15 12 19 0 14 -26 16 -43 4z"/>
<path d="M410 591 c0 -16 5 -33 10 -36 6 -4 10 6 10 24 0 16 -4 33 -10 36 -6
4 -10 -6 -10 -24z"/>
<path d="M520 594 c0 -21 39 -56 57 -52 15 3 19 22 6 24 -23 2 -41 17 -36 30
3 8 -1 14 -11 14 -9 0 -16 -7 -16 -16z"/>
<path d="M2697 590 c4 -16 2 -19 -11 -14 -11 4 -16 1 -16 -10 0 -10 6 -14 18
-10 16 5 16 5 0 -9 -10 -8 -18 -19 -18 -26 0 -14 0 -14 37 0 l31 10 -19 40
c-21 43 -30 51 -22 19z"/>
<path d="M2736 585 c4 -8 15 -15 25 -15 20 0 26 -16 8 -22 -17 -6 7 -55 30
-61 13 -3 21 -13 21 -26 0 -12 6 -21 14 -21 21 0 8 40 -25 72 -19 18 -23 28
-14 31 7 3 18 0 24 -6 8 -8 11 -8 11 1 0 6 -6 15 -14 19 -7 4 -15 14 -18 22
-2 8 -18 15 -36 17 -24 3 -30 0 -26 -11z"/>
<path d="M980 529 c0 -35 5 -71 10 -79 7 -10 8 10 4 60 -8 94 -14 103 -14 19z"/>
<path d="M1493 579 c-7 -7 -13 -26 -13 -41 0 -15 -5 -28 -11 -28 -5 0 -2 -14
8 -30 12 -21 14 -33 7 -38 -6 -4 -14 -19 -17 -33 -5 -20 -1 -30 21 -46 31 -23
90 -51 112 -52 8 -1 35 -4 58 -7 29 -4 48 -2 55 6 10 10 6 11 -15 6 -15 -3
-30 -2 -33 4 -3 5 -23 10 -44 10 -30 0 -50 9 -90 41 -32 26 -49 45 -43 51 14
14 72 -14 110 -51 32 -33 42 -25 19 15 -7 12 -38 45 -69 74 -60 54 -71 90 -15
47 34 -26 97 -60 97 -53 0 2 -29 23 -65 45 -36 23 -65 48 -65 56 0 20 24 19
40 -1 8 -8 22 -20 32 -25 18 -9 18 -8 8 10 -9 17 -8 21 5 21 8 0 15 -3 15 -8
0 -4 21 -18 48 -32 56 -29 62 -36 62 -74 0 -41 31 -136 45 -136 13 0 15 42 3
51 -5 3 -13 34 -19 68 -7 48 -16 68 -37 87 -36 33 -80 56 -111 59 -14 1 -39 6
-56 9 -19 5 -34 3 -42 -5z"/>
<path d="M2947 576 c-7 -17 1 -26 24 -26 22 0 32 27 13 34 -24 9 -31 7 -37 -8z"/>
<path d="M614 565 c3 -8 9 -22 13 -32 4 -11 3 -14 -5 -9 -17 10 -77 -13 -91
-35 -15 -25 0 -24 27 1 26 25 41 25 58 3 13 -17 13 -17 14 -1 0 10 6 15 13 12
19 -7 19 37 0 58 -20 22 -37 24 -29 3z"/>
<path d="M1345 448 c-8 -155 -6 -181 24 -296 12 -45 22 -97 23 -116 1 -18 6
-33 13 -33 8 0 9 14 4 50 -5 28 -6 54 -3 59 3 4 0 8 -5 8 -6 0 -11 18 -11 39
0 22 -4 42 -9 45 -4 3 -9 34 -11 68 -3 90 -2 88 -13 88 -5 0 -6 7 -3 17 4 9 9
39 12 67 3 28 7 57 9 63 2 7 -2 27 -9 45 -13 30 -14 22 -21 -104z"/>
<path d="M2556 564 c-3 -8 1 -22 9 -31 8 -8 12 -20 8 -26 -12 -19 -10 -55 3
-50 6 2 11 16 11 31 0 15 4 38 8 51 7 20 5 23 -9 18 -9 -4 -14 -3 -11 2 3 5 1
12 -4 15 -5 3 -12 -1 -15 -10z"/>
<path d="M155 553 c-2 -7 -11 -13 -20 -13 -8 0 -15 -4 -15 -9 0 -4 -12 -6 -26
-3 -17 3 -25 1 -21 -5 8 -13 47 -24 47 -13 0 4 20 13 45 20 25 7 45 18 45 24
0 15 -49 14 -55 -1z"/>
<path d="M0 511 c0 -11 13 -30 28 -43 15 -13 31 -31 35 -41 10 -26 25 -20 19
8 -3 20 -1 24 12 19 12 -5 15 -2 10 10 -3 9 -12 16 -19 16 -7 0 -18 7 -25 15
-9 11 -16 12 -25 5 -15 -12 -26 -3 -18 16 3 8 0 14 -6 14 -6 0 -11 -9 -11 -19z"/>
<path d="M208 516 c-10 -7 -18 -17 -18 -21 0 -4 7 -2 15 5 14 11 19 7 16 -12
0 -5 4 -8 9 -8 6 0 10 4 10 9 0 12 39 21 46 10 8 -13 24 -11 24 3 0 6 -3 9 -6
5 -4 -3 -13 0 -21 8 -18 18 -52 19 -75 1z"/>
<path d="M2874 519 c-3 -6 -2 -15 2 -19 12 -12 38 5 30 19 -9 14 -23 14 -32 0z"/>
<path d="M2959 523 c-1 -5 -1 -11 0 -15 0 -5 -8 -8 -19 -8 -13 0 -18 -5 -14
-15 4 -10 14 -13 33 -8 28 7 47 26 31 31 -6 2 -8 8 -4 13 3 5 -2 9 -10 9 -9 0
-17 -3 -17 -7z"/>
<path d="M1203 440 c0 -41 2 -58 4 -37 2 20 2 54 0 75 -2 20 -4 3 -4 -38z"/>
<path d="M355 468 c-6 -13 -18 -22 -28 -22 -9 1 -17 -2 -17 -7 0 -5 6 -9 13
-9 6 0 22 -3 35 -6 16 -5 22 -2 22 9 0 8 6 17 13 20 9 3 9 7 -2 20 -18 22 -24
21 -36 -5z"/>
<path d="M460 435 c-19 -19 -39 -35 -46 -35 -6 0 -14 -17 -17 -37 -3 -21 -9
-49 -13 -62 -6 -21 -4 -23 12 -19 11 3 25 -1 32 -9 17 -18 4 -17 -68 5 -54 15
-79 32 -48 32 9 0 9 3 1 11 -8 8 -21 8 -46 -2 -30 -11 -37 -10 -52 4 -9 9 -14
21 -10 26 9 16 -15 24 -30 11 -19 -16 -19 -30 0 -30 8 0 15 -4 15 -10 0 -5 17
-12 38 -15 20 -4 48 -11 62 -18 44 -19 164 -49 200 -50 95 -1 108 2 103 23 -3
10 -14 22 -25 26 -14 4 -16 9 -8 19 7 9 7 15 -3 23 -17 15 -60 3 -53 -14 3 -7
1 -16 -4 -19 -5 -3 -6 -15 -1 -28 8 -21 7 -23 -19 -19 -26 4 -28 7 -25 45 1
23 3 44 5 47 1 3 1 18 0 33 -1 19 7 36 25 53 17 16 24 29 18 35 -5 5 -22 -4
-43 -26z m-10 -69 c0 -26 -20 -67 -29 -61 -12 7 -11 46 2 63 13 16 27 15 27
-2z"/>
<path d="M623 442 c10 -10 17 -24 17 -30 0 -7 5 -12 10 -12 14 0 13 33 -2 48
-7 7 -19 12 -27 12 -12 0 -11 -3 2 -18z"/>
<path d="M712 452 c-10 -7 -10 -11 3 -22 11 -10 15 -10 15 0 0 7 7 10 16 6 10
-4 14 -1 12 6 -6 16 -29 21 -46 10z"/>
<path d="M517 437 c-7 -18 3 -66 15 -73 6 -4 7 8 3 30 -5 25 -4 36 4 36 7 0 9
5 6 10 -9 14 -22 12 -28 -3z"/>
<path d="M2934 435 c3 -9 6 -19 6 -21 0 -2 9 -4 20 -4 10 0 24 -8 29 -17 10
-17 10 -16 10 2 0 13 -12 26 -35 38 -33 16 -36 16 -30 2z"/>
<path d="M240 423 c0 -7 6 -13 13 -13 8 0 14 -7 14 -15 0 -11 -3 -12 -14 -3
-10 8 -17 8 -25 0 -9 -9 -9 -12 0 -12 7 0 12 -10 12 -22 0 -20 1 -21 20 -3 16
15 22 15 35 5 12 -10 15 -10 15 4 0 9 5 16 10 16 6 0 10 8 9 18 0 10 -3 12 -6
5 -2 -7 -12 -13 -21 -12 -11 0 -12 2 -4 6 6 2 12 9 12 15 0 6 -7 7 -15 4 -9
-3 -18 0 -21 8 -6 17 -34 17 -34 -1z"/>
<path d="M587 412 c-5 -13 -13 -20 -20 -16 -7 4 -4 -1 5 -11 22 -23 31 -16 26
22 -3 27 -4 27 -11 5z"/>
<path d="M677 412 c11 -30 25 -42 49 -42 27 0 38 14 29 38 -6 16 -7 15 -17 -2
-6 -10 -13 -14 -17 -10 -3 5 -16 15 -28 21 -20 11 -22 11 -16 -5z"/>
<path d="M989 418 c-1 -2 -2 -18 -3 -36 -2 -38 -32 -64 -42 -37 -6 16 -34 17
-45 2 -3 -5 -23 -2 -43 7 -36 15 -37 15 -47 -11 -5 -14 -7 -28 -4 -31 3 -3 5
0 5 6 0 7 4 12 9 12 5 0 5 -15 1 -35 -6 -25 -4 -35 4 -35 7 0 12 14 12 35 0
37 11 56 22 39 9 -14 42 -26 42 -15 0 5 6 11 13 14 10 4 12 -3 9 -23 -3 -19
-9 -27 -18 -23 -8 3 -14 0 -14 -6 0 -6 14 -11 30 -11 17 0 30 -5 30 -11 0 -5
5 -7 10 -4 6 3 13 -1 16 -9 3 -9 9 -14 14 -11 4 2 22 -7 40 -20 19 -14 38 -25
43 -25 12 0 -29 36 -65 58 -18 10 -28 25 -28 40 0 13 4 21 8 18 4 -2 9 22 10
55 1 32 0 59 -3 59 -3 0 -5 -1 -6 -2z m-39 -99 c0 -5 5 -7 10 -4 6 3 10 -5 10
-18 0 -20 -4 -24 -20 -20 -21 5 -30 53 -10 53 6 0 10 -5 10 -11z"/>
<path d="M2826 383 c-32 -39 -35 -40 -65 -12 -35 33 -37 14 -3 -21 31 -30 32
-30 44 -10 7 11 20 20 30 20 9 0 23 9 31 20 15 22 57 17 57 -6 0 -8 9 -14 20
-14 27 0 25 5 -10 30 -47 34 -73 32 -104 -7z"/>
<path d="M370 385 c0 -8 -4 -15 -9 -15 -5 0 -11 -10 -14 -22 -5 -20 -3 -19 18
7 27 32 31 45 15 45 -5 0 -10 -7 -10 -15z"/>
<path d="M2160 376 c0 -15 42 -26 101 -26 55 0 49 18 -8 25 -27 3 -58 8 -70
11 -15 3 -23 0 -23 -10z"/>
<path d="M7 363 c-15 -15 -5 -22 41 -28 26 -3 61 -8 77 -10 17 -2 24 -1 18 2
-7 2 -13 11 -13 18 0 18 -32 28 -42 13 -8 -11 -10 -11 -15 0 -4 10 -8 10 -21
0 -12 -10 -16 -10 -19 0 -5 13 -16 16 -26 5z"/>
<path d="M620 354 c0 -23 29 -49 42 -36 7 7 3 17 -11 31 -25 25 -31 26 -31 5z"/>
<path d="M756 352 c-24 -12 -30 -12 -38 -1 -8 12 -9 12 -6 0 6 -22 43 -32 63
-17 28 20 13 33 -19 18z"/>
<path d="M2150 330 c0 -11 9 -35 19 -54 11 -19 17 -37 14 -40 -4 -3 1 -6 10
-6 18 0 12 32 -17 88 -19 37 -26 40 -26 12z"/>
<path d="M2650 345 c0 -3 11 -23 24 -44 13 -20 47 -82 74 -137 51 -100 111
-183 112 -154 0 19 -83 166 -152 267 -44 67 -58 82 -58 68z"/>
<path d="M2630 314 c0 -22 11 -40 42 -69 l42 -40 -33 60 c-44 79 -51 85 -51
49z"/>
<path d="M2813 333 c-18 -7 -16 -30 3 -37 24 -9 29 -7 16 6 -17 17 -15 26 6
31 11 3 12 5 2 5 -8 0 -21 -2 -27 -5z"/>
<path d="M2290 297 c0 -30 -4 -37 -19 -37 -10 0 -23 -6 -29 -13 -9 -10 -4 -12
22 -9 30 3 34 8 40 40 3 20 1 41 -4 46 -7 7 -10 -3 -10 -27z"/>
<path d="M2367 323 c-12 -11 -7 -33 7 -33 7 0 21 -12 31 -26 13 -21 19 -24 26
-13 14 22 11 29 -11 29 -11 0 -20 6 -20 14 0 17 -24 38 -33 29z"/>
<path d="M605 279 c9 -52 13 -58 25 -39 6 9 6 16 0 18 -6 2 -10 14 -10 27 0
13 -5 27 -11 31 -8 5 -9 -6 -4 -37z"/>
<path d="M2958 303 c-28 -33 -29 -42 -7 -53 19 -11 20 -10 14 10 -4 14 -1 28
11 41 9 10 13 19 7 19 -5 0 -17 -8 -25 -17z"/>
<path d="M720 298 c0 -6 -7 -8 -15 -4 -9 3 -15 0 -15 -10 0 -8 13 -17 30 -20
17 -4 30 -9 30 -11 0 -16 -50 -50 -125 -86 -35 -16 -73 -55 -42 -44 9 3 17 2
17 -3 0 -5 12 -9 26 -8 22 2 23 4 9 14 -18 13 -13 18 29 28 24 6 27 9 15 17
-10 8 -2 9 29 5 40 -6 42 -5 44 21 6 86 4 102 -14 106 -10 3 -18 1 -18 -5z"/>
<path d="M17 293 c-11 -10 51 -33 71 -26 14 6 15 4 4 -9 -10 -13 -9 -15 12
-11 14 3 49 -3 78 -13 29 -10 60 -19 68 -20 8 -1 31 -5 50 -8 l35 -7 -33 15
c-18 8 -49 18 -70 22 -20 4 -57 16 -82 27 -25 11 -57 19 -72 18 -14 -1 -29 2
-33 8 -7 13 -19 14 -28 4z"/>
<path d="M2602 171 c-17 -74 -20 -104 -13 -124 15 -38 20 -33 14 13 -4 32 -2
40 10 40 8 0 18 -8 21 -17 16 -43 52 -83 73 -83 21 0 18 7 -32 80 -52 76 -66
110 -46 110 5 0 16 -16 25 -35 30 -63 106 -155 128 -155 15 0 -100 200 -151
262 -3 4 -16 -37 -29 -91z"/>
<path d="M2436 188 c10 -18 26 -55 36 -83 l19 -50 -6 49 c-6 46 -41 116 -58
116 -4 0 0 -15 9 -32z"/>
<path d="M2529 213 c-7 -45 -6 -63 3 -63 6 0 5 -7 -3 -17 -12 -17 -12 -17 6 0
16 14 18 21 8 37 -8 12 -9 21 -3 25 6 3 10 10 10 16 0 11 -19 12 -21 2z"/>
<path d="M2845 210 c11 -4 41 -10 68 -14 26 -4 47 -11 47 -17 0 -5 9 -9 20 -9
34 0 11 28 -28 34 -74 11 -127 14 -107 6z"/>
<path d="M0 191 c0 -12 48 -31 96 -38 24 -3 41 -9 39 -13 -3 -5 4 -6 16 -3 11
3 59 -7 107 -22 48 -15 100 -31 116 -36 16 -5 44 -9 61 -9 18 0 38 -6 44 -14
7 -8 19 -12 29 -9 9 2 45 -5 80 -15 34 -11 64 -17 67 -13 2 4 -39 18 -91 31
-53 13 -101 28 -108 35 -6 6 -23 17 -36 24 -24 11 -24 11 -6 -3 20 -16 20 -16
0 -16 -10 0 -48 9 -84 21 -98 30 -160 46 -215 54 -27 4 -65 13 -82 20 -18 8
-33 10 -33 6z"/>
<path d="M1020 141 c0 -17 5 -31 10 -31 6 0 10 11 10 24 0 14 -4 28 -10 31 -6
4 -10 -7 -10 -24z"/>
<path d="M733 113 c-4 -10 -11 -22 -17 -26 -7 -6 -4 -7 6 -3 10 3 18 -1 21
-12 3 -9 5 0 6 21 1 40 -6 48 -16 20z"/>
<path d="M2950 118 l-25 -11 25 -7 c41 -13 48 -11 43 10 -6 23 -8 23 -43 8z"/>
<path d="M490 105 c-10 -12 -9 -15 6 -16 23 -1 45 -5 73 -14 13 -4 29 0 43 10
23 16 23 16 -12 15 -68 -4 -101 0 -95 10 9 15 -1 12 -15 -5z"/>
<path d="M2560 43 c0 -6 -3 -18 -6 -27 -4 -12 0 -16 15 -16 12 0 21 4 21 8 0
13 -29 48 -30 35z"/>
<path d="M2906 36 c3 -9 14 -17 23 -18 9 0 21 -2 28 -2 6 -1 15 -5 19 -9 12
-12 24 -8 24 7 0 8 -14 17 -32 21 -18 4 -41 9 -50 11 -13 4 -16 1 -12 -10z"/>
<path d="M210 23 c40 -16 231 -30 215 -15 -17 16 -106 31 -131 22 -12 -5 -25
-6 -28 -2 -4 3 -26 7 -49 8 l-42 2 35 -15z"/>
<path d="M450 10 c14 -9 99 -15 89 -6 -2 2 -26 6 -54 10 -34 4 -45 3 -35 -4z"/>
</g>
</svg>
